<svg width="469" height="390" viewBox="0 0 469 390" fill="none" xmlns="http://www.w3.org/2000/svg">
<path d="M68.6838 353.504C160.268 401.345 308.743 401.345 400.316 353.504C491.889 305.662 491.9 228.091 400.316 180.25C308.732 132.408 160.257 132.408 68.6838 180.25C-22.8891 228.091 -22.9001 305.662 68.6838 353.504Z" fill="#F0F0F0"/>
<path d="M419.718 259.81C419.718 259.81 420.877 254.039 430.178 249.58C439.239 245.208 444.464 246.224 450.683 243.721C456.903 241.218 452.443 229.512 435.381 234.693C419.762 239.469 418.166 252.99 418.166 252.99L419.718 259.81Z" fill="#1E959B"/>
<path opacity="0.2" d="M419.718 259.81C419.718 259.81 420.877 254.039 430.178 249.58C439.239 245.208 444.464 246.224 450.683 243.721C456.903 241.218 452.443 229.512 435.381 234.693C419.762 239.469 418.166 252.99 418.166 252.99L419.718 259.81Z" fill="black"/>
<path d="M418.154 257.646C418.089 257.657 418.023 257.657 417.957 257.646C417.811 257.592 417.691 257.483 417.622 257.343C417.553 257.203 417.54 257.041 417.586 256.892C419.772 250.629 425.237 244.869 432.374 241.338C441.512 236.868 448.015 238.3 448.289 238.355C448.442 238.393 448.575 238.49 448.658 238.625C448.742 238.759 448.77 238.921 448.737 239.076C448.7 239.228 448.605 239.36 448.472 239.442C448.339 239.524 448.179 239.549 448.026 239.513C447.961 239.513 441.621 238.136 432.899 242.41C426.068 245.754 420.766 251.307 418.69 257.275C418.649 257.384 418.576 257.478 418.481 257.545C418.385 257.611 418.271 257.647 418.154 257.646Z" fill="#FAFAFA"/>
<path d="M418.428 252.564C418.428 252.564 419.521 249.285 423.729 242.88C430.987 231.742 442.824 226.889 447.994 220.527C453.58 213.663 443.928 209.422 435.272 211.783C430.309 213.16 425.784 217.685 423.412 220.746C418.386 227.377 415.507 235.386 415.16 243.699L418.428 252.564Z" fill="#F05670"/>
<path d="M416.788 252.881C416.631 252.875 416.482 252.808 416.374 252.693C416.265 252.579 416.206 252.426 416.209 252.269C416.708 245.052 418.759 238.028 422.221 231.676C428.779 219.893 438.518 215.707 438.922 215.543C438.994 215.511 439.071 215.494 439.149 215.493C439.227 215.491 439.305 215.506 439.378 215.536C439.45 215.565 439.516 215.609 439.571 215.665C439.626 215.721 439.669 215.787 439.698 215.86C439.729 215.932 439.744 216.009 439.745 216.087C439.746 216.165 439.731 216.242 439.701 216.314C439.672 216.386 439.628 216.452 439.573 216.507C439.518 216.562 439.453 216.606 439.381 216.636C432.541 220.078 426.916 225.528 423.259 232.255C419.887 238.438 417.889 245.276 417.4 252.301C417.399 252.38 417.382 252.457 417.35 252.529C417.319 252.601 417.273 252.666 417.216 252.719C417.159 252.773 417.092 252.815 417.018 252.843C416.945 252.871 416.867 252.884 416.788 252.881Z" fill="#FAFAFA"/>
<path d="M98.972 262.477C91.1132 257.187 90.7634 242.978 91.9001 234.059C93.7145 219.85 86.4351 216.571 82.7297 222.844C79.9814 228.215 78.678 234.208 78.9479 240.234C79.3523 252.323 84.5878 266.784 97.2668 272.03L98.972 262.477Z" fill="#1E959B"/>
<path opacity="0.2" d="M98.972 262.477C91.1132 257.187 90.7634 242.978 91.9001 234.059C93.7145 219.85 86.4351 216.571 82.7297 222.844C79.9814 228.215 78.678 234.208 78.9479 240.234C79.3523 252.323 84.5878 266.784 97.2668 272.03L98.972 262.477Z" fill="black"/>
<path d="M97.353 271.189C97.2212 271.188 97.0937 271.142 96.9923 271.058C83.6903 259.679 81.6136 239.36 85.308 225.271C85.3442 225.126 85.4365 225.002 85.5646 224.925C85.6928 224.848 85.8462 224.825 85.9911 224.861C86.136 224.897 86.2607 224.99 86.3375 225.118C86.4144 225.246 86.4372 225.399 86.401 225.544C82.7831 239.305 84.7942 259.155 97.7356 270.227C97.8456 270.322 97.9141 270.457 97.9264 270.602C97.9386 270.747 97.8937 270.891 97.8011 271.003C97.7448 271.065 97.6754 271.114 97.5979 271.146C97.5204 271.178 97.4368 271.193 97.353 271.189Z" fill="#FAFAFA"/>
<path d="M110.777 288.644C103.934 293.563 88.2167 297.815 83.1014 289.387C78.3359 281.561 81.5275 278.129 71.8652 279.485C62.2029 280.84 60.006 273.342 62.3013 267.046C64.5966 260.75 55.0764 251.536 62.0171 244.388C68.9578 237.24 72.9473 252.105 76.9805 253.722C81.0137 255.34 83.4512 251.864 88.0965 254.389C92.7418 256.914 93.1681 267.232 97.6823 267.44C105.082 267.768 117.521 267.724 118.45 274.315C119.379 280.906 110.777 288.644 110.777 288.644Z" fill="#F05670"/>
<path d="M113.672 285.813H113.607C77.8103 282.075 63.9618 250.837 63.1092 246.29C63.0837 246.148 63.1153 246.001 63.1972 245.883C63.2791 245.764 63.4046 245.682 63.5464 245.656C63.6897 245.63 63.8374 245.661 63.9579 245.743C64.0784 245.825 64.1622 245.95 64.1913 246.093C65.022 250.563 78.5864 281.07 113.727 284.731C113.87 284.748 114.001 284.82 114.091 284.933C114.181 285.045 114.223 285.189 114.208 285.332C114.194 285.465 114.132 285.587 114.033 285.676C113.934 285.765 113.805 285.814 113.672 285.813Z" fill="#FAFAFA"/>
<path d="M74.4659 271.812C72.211 271.811 69.9596 271.632 67.7329 271.276C67.6612 271.264 67.5925 271.238 67.5309 271.199C67.4692 271.16 67.4158 271.11 67.3737 271.05C67.2886 270.93 67.2547 270.782 67.2793 270.637C67.304 270.492 67.3852 270.362 67.5051 270.277C67.625 270.192 67.7738 270.158 67.9187 270.183C72.005 270.851 76.1726 270.851 80.2589 270.183C80.3286 270.167 80.4007 270.165 80.4712 270.177C80.5416 270.19 80.6088 270.216 80.6689 270.255C80.729 270.293 80.7808 270.344 80.8211 270.403C80.8614 270.462 80.8896 270.528 80.9038 270.598C80.9199 270.669 80.9219 270.742 80.9097 270.813C80.8976 270.884 80.8714 270.952 80.8328 271.013C80.7942 271.074 80.7439 271.127 80.6847 271.168C80.6256 271.209 80.5589 271.239 80.4884 271.254C78.5046 271.641 76.487 271.828 74.4659 271.812Z" fill="#FAFAFA"/>
<path d="M85.1562 275.091H85.025C84.9559 275.075 84.8906 275.046 84.8328 275.005C84.775 274.965 84.7259 274.913 84.6883 274.853C84.6507 274.793 84.6253 274.726 84.6137 274.656C84.6021 274.586 84.6044 274.515 84.6206 274.446C85.7184 269.578 85.9808 264.559 85.3966 259.603C85.3734 259.458 85.4088 259.31 85.4949 259.191C85.581 259.072 85.7108 258.992 85.8557 258.969C86.0006 258.946 86.1489 258.981 86.2677 259.067C86.3866 259.153 86.4665 259.283 86.4896 259.428C87.1217 264.535 86.8554 269.714 85.7027 274.73C85.6628 274.841 85.5879 274.936 85.4894 275.001C85.3909 275.066 85.274 275.098 85.1562 275.091Z" fill="#FAFAFA"/>
<path d="M18.1652 232.321L35.3146 222.418C36.1389 221.998 37.0509 221.779 37.9761 221.779C38.9013 221.779 39.8134 221.998 40.6376 222.418L42.8237 223.664C43.5967 224.171 44.2398 224.853 44.7011 225.654C45.1625 226.455 45.4292 227.354 45.4797 228.277V248.115C45.43 249.038 45.1637 249.937 44.7023 250.738C44.2409 251.54 43.5973 252.221 42.8237 252.728L25.6633 262.63C24.8391 263.051 23.927 263.27 23.0018 263.27C22.0766 263.27 21.1645 263.051 20.3403 262.63L18.1543 261.384C17.3786 260.879 16.7329 260.198 16.2696 259.397C15.8062 258.595 15.5382 257.696 15.4873 256.772V236.934C15.5368 236.008 15.8054 235.107 16.2709 234.305C16.7365 233.503 17.3857 232.823 18.1652 232.321Z" fill="#1E959B"/>
<path opacity="0.5" d="M18.1652 232.321L35.3146 222.418C36.1389 221.998 37.0509 221.779 37.9761 221.779C38.9013 221.779 39.8134 221.998 40.6376 222.418L42.8237 223.664C43.5967 224.171 44.2398 224.853 44.7011 225.654C45.1625 226.455 45.4292 227.354 45.4797 228.277V248.115C45.43 249.038 45.1637 249.937 44.7023 250.738C44.2409 251.54 43.5973 252.221 42.8237 252.728L25.6633 262.63C24.8391 263.051 23.927 263.27 23.0018 263.27C22.0766 263.27 21.1645 263.051 20.3403 262.63L18.1543 261.384C17.3786 260.879 16.7329 260.198 16.2696 259.397C15.8062 258.595 15.5382 257.696 15.4873 256.772V236.934C15.5368 236.008 15.8054 235.107 16.2709 234.305C16.7365 233.503 17.3857 232.823 18.1652 232.321Z" fill="#FAFAFA"/>
<path d="M45.4683 228.277C45.4683 226.583 44.2769 225.894 42.8123 226.747L25.6519 236.638C24.8708 237.141 24.2191 237.82 23.75 238.622C23.2809 239.423 23.0076 240.324 22.9521 241.251V261.056C22.9521 262.761 24.1435 263.45 25.6082 262.598L42.7685 252.695C43.546 252.196 44.1954 251.522 44.6644 250.727C45.1333 249.931 45.4087 249.037 45.4683 248.115V228.277Z" fill="#1E959B"/>
<path d="M15.498 256.739C15.5489 257.663 15.8169 258.563 16.2803 259.364C16.7437 260.165 17.3893 260.846 18.165 261.352L20.351 262.598C21.103 262.973 21.9255 263.187 22.7652 263.225C23.605 263.262 24.4434 263.123 25.2259 262.816C23.9689 263.286 23.0399 262.576 23.0399 261.056V241.251C23.072 240.325 23.339 239.422 23.8159 238.628L16.3287 234.31C15.848 235.104 15.5772 236.007 15.5418 236.934L15.498 256.739Z" fill="#1E959B"/>
<path opacity="0.1" d="M15.498 256.739C15.5489 257.663 15.8169 258.563 16.2803 259.364C16.7437 260.165 17.3893 260.846 18.165 261.352L20.351 262.598C21.103 262.973 21.9255 263.187 22.7652 263.225C23.605 263.262 24.4434 263.123 25.2259 262.816C23.9689 263.286 23.0399 262.576 23.0399 261.056V241.251C23.072 240.325 23.339 239.422 23.8159 238.628L16.3287 234.31C15.848 235.104 15.5772 236.007 15.5418 236.934L15.498 256.739Z" fill="black"/>
<path d="M26.9745 242.65L41.5335 234.157C41.927 233.928 42.244 234.157 42.244 234.562V244.464C42.2302 244.71 42.1587 244.949 42.0352 245.162C41.9118 245.374 41.7399 245.555 41.5335 245.689L26.9526 254.149C26.5592 254.378 26.2422 254.149 26.2422 253.744V243.841C26.2625 243.599 26.3394 243.366 26.4666 243.159C26.5938 242.952 26.7677 242.777 26.9745 242.65Z" fill="#FAFAFA"/>
<path d="M26.2637 243.022L34.975 245.853L42.2654 233.742L35.2155 246.869L26.2637 243.022Z" fill="#E0E0E0"/>
<path d="M18.1652 182.326L35.3146 172.424C36.1404 172.008 37.0518 171.792 37.9761 171.792C38.9004 171.792 39.8119 172.008 40.6376 172.424L42.8237 173.681C43.5973 174.187 44.2409 174.869 44.7023 175.67C45.1637 176.471 45.43 177.37 45.4797 178.293V198.099C45.4292 199.022 45.1625 199.92 44.7011 200.721C44.2398 201.522 43.5967 202.204 42.8237 202.711L25.6633 212.614C24.8375 213.029 23.9261 213.245 23.0018 213.245C22.0775 213.245 21.1661 213.029 20.3403 212.614L18.1543 211.357C17.3768 210.854 16.7297 210.173 16.2661 209.371C15.8025 208.57 15.5356 207.669 15.4873 206.744V186.906C15.5445 185.987 15.8165 185.093 16.2816 184.298C16.7467 183.502 17.3918 182.827 18.1652 182.326Z" fill="#F05670"/>
<path opacity="0.5" d="M18.1652 182.326L35.3146 172.424C36.1404 172.008 37.0518 171.792 37.9761 171.792C38.9004 171.792 39.8119 172.008 40.6376 172.424L42.8237 173.681C43.5973 174.187 44.2409 174.869 44.7023 175.67C45.1637 176.471 45.43 177.37 45.4797 178.293V198.099C45.4292 199.022 45.1625 199.92 44.7011 200.721C44.2398 201.522 43.5967 202.204 42.8237 202.711L25.6633 212.614C24.8375 213.029 23.9261 213.245 23.0018 213.245C22.0775 213.245 21.1661 213.029 20.3403 212.614L18.1543 211.357C17.3768 210.854 16.7297 210.173 16.2661 209.371C15.8025 208.57 15.5356 207.669 15.4873 206.744V186.906C15.5445 185.987 15.8165 185.093 16.2816 184.298C16.7467 183.502 17.3918 182.827 18.1652 182.326Z" fill="#FAFAFA"/>
<path d="M45.4683 178.293C45.4683 176.588 44.2769 175.899 42.8123 176.752L25.6519 186.655C24.8693 187.158 24.2168 187.839 23.7476 188.643C23.2784 189.446 23.0059 190.349 22.9521 191.278V211.084C22.9521 212.778 24.1435 213.466 25.6082 212.625L42.7685 202.722C43.5416 202.215 44.1847 201.533 44.646 200.732C45.1074 199.931 45.374 199.033 45.4246 198.11L45.4683 178.293Z" fill="#F05670"/>
<path d="M15.498 206.744C15.5463 207.669 15.8132 208.57 16.2768 209.371C16.7404 210.173 17.3875 210.854 18.165 211.357L20.351 212.614C21.1029 212.991 21.926 213.204 22.7662 213.24C23.6064 213.275 24.4447 213.133 25.2259 212.822C23.9689 213.302 23.0399 212.592 23.0399 211.073V191.278C23.072 190.352 23.339 189.449 23.8159 188.655L16.3287 184.283C15.848 185.076 15.5772 185.979 15.5418 186.906L15.498 206.744Z" fill="#F05670"/>
<path opacity="0.1" d="M15.498 206.744C15.5463 207.669 15.8132 208.57 16.2768 209.371C16.7404 210.173 17.3875 210.854 18.165 211.357L20.351 212.614C21.1029 212.991 21.926 213.204 22.7662 213.24C23.6064 213.275 24.4447 213.133 25.2259 212.822C23.9689 213.302 23.0399 212.592 23.0399 211.073V191.278C23.072 190.352 23.339 189.449 23.8159 188.655L16.3287 184.283C15.848 185.076 15.5772 185.979 15.5418 186.906L15.498 206.744Z" fill="black"/>
<path d="M34.0683 202.285L32.243 202.143C29.8383 201.946 26.9746 200.995 26.9746 197.563C27.0439 196.304 27.4085 195.079 28.0389 193.988C28.6693 192.896 29.5478 191.968 30.6034 191.278C32.1664 190.371 33.5109 190.743 34.0246 192.054C34.5415 190.108 35.7601 188.423 37.4457 187.322C39.4678 186.163 41.0964 187.103 41.0964 189.431C41.0964 192.798 38.2436 197.082 35.8608 200.055L34.0683 202.285Z" fill="#FAFAFA"/>
<path d="M18.1652 132.354L35.3146 122.418C36.1404 122.003 37.0518 121.787 37.9761 121.787C38.9004 121.787 39.8119 122.003 40.6376 122.418L42.8237 123.675C43.5985 124.18 44.243 124.861 44.7046 125.663C45.1661 126.465 45.4317 127.364 45.4797 128.288V148.093C45.4292 149.016 45.1625 149.915 44.7011 150.716C44.2398 151.517 43.5967 152.199 42.8237 152.706L25.6633 162.608C24.8375 163.024 23.9261 163.24 23.0018 163.24C22.0775 163.24 21.1661 163.024 20.3403 162.608L18.1543 161.351C17.3774 160.847 16.7308 160.167 16.2673 159.365C15.8037 158.564 15.5365 157.664 15.4873 156.739V136.966C15.5394 136.041 15.8091 135.141 16.2744 134.34C16.7397 133.538 17.3875 132.858 18.1652 132.354Z" fill="#1E959B"/>
<path opacity="0.5" d="M18.1652 132.354L35.3146 122.418C36.1404 122.003 37.0519 121.787 37.9761 121.787C38.9004 121.787 39.8119 122.003 40.6376 122.418L42.8237 123.675C43.5985 124.18 44.243 124.861 44.7046 125.663C45.1661 126.465 45.4317 127.364 45.4797 128.288V148.093C45.4292 149.016 45.1625 149.915 44.7011 150.716C44.2398 151.517 43.5967 152.199 42.8237 152.706L25.6633 162.608C24.8375 163.024 23.9261 163.24 23.0018 163.24C22.0775 163.24 21.1661 163.024 20.3403 162.608L18.1543 161.351C17.3774 160.847 16.7308 160.167 16.2673 159.365C15.8037 158.564 15.5365 157.664 15.4873 156.739V136.966C15.5394 136.041 15.8091 135.141 16.2744 134.34C16.7397 133.538 17.3875 132.858 18.1652 132.354Z" fill="#FAFAFA"/>
<path d="M25.6521 162.641C24.1875 163.483 22.9961 162.794 22.9961 161.1V141.294C23.0466 140.371 23.3133 139.473 23.7747 138.672C24.236 137.871 24.8791 137.189 25.6521 136.682L42.8125 126.79C44.2771 125.938 45.4685 126.626 45.4685 128.331V148.137C45.418 149.06 45.1513 149.958 44.69 150.759C44.2286 151.561 43.5855 152.242 42.8125 152.749" fill="#1E959B"/>
<path d="M15.498 156.772C15.5472 157.696 15.8145 158.596 16.278 159.398C16.7415 160.2 17.3881 160.88 18.165 161.384L20.351 162.641C21.1029 163.018 21.926 163.231 22.7662 163.267C23.6064 163.303 24.4447 163.16 25.2259 162.849C23.9689 163.33 23.0399 162.619 23.0399 161.1V141.295C23.072 140.368 23.339 139.466 23.8159 138.671L16.3287 134.299C15.848 135.093 15.5772 135.995 15.5418 136.922L15.498 156.772Z" fill="#1E959B"/>
<path opacity="0.1" d="M15.498 156.772C15.5472 157.696 15.8145 158.596 16.278 159.398C16.7415 160.2 17.3881 160.88 18.165 161.384L20.351 162.641C21.1029 163.018 21.926 163.231 22.7662 163.267C23.6064 163.303 24.4447 163.16 25.2259 162.849C23.9689 163.33 23.0399 162.619 23.0399 161.1V141.295C23.072 140.368 23.339 139.466 23.8159 138.671L16.3287 134.299C15.848 135.093 15.5772 135.995 15.5418 136.922L15.498 156.772Z" fill="black"/>
<path d="M31.1064 144.453C31.1064 144.453 33.1067 139.841 33.2925 139.174C33.3914 138.029 33.3914 136.877 33.2925 135.731C33.2925 135.294 35.1178 134.059 35.6971 135.327C36.2759 136.672 36.3875 138.173 36.0141 139.589L40.4408 136.999C41.3808 136.453 41.7743 137.229 41.7743 137.83C41.7492 138.53 41.5002 139.205 41.0638 139.753C41.0638 139.753 41.9492 139.48 41.9601 140.672C41.9335 141.091 41.823 141.5 41.6352 141.875C41.4475 142.251 41.1863 142.585 40.8671 142.858C40.8671 142.858 41.1622 143.076 41.1622 143.951C41.0355 144.81 40.5908 145.59 39.9162 146.137C40.0618 146.482 40.1326 146.855 40.1238 147.23C40.0613 147.744 39.8832 148.237 39.6031 148.672C39.323 149.107 38.948 149.474 38.5062 149.744L31.1392 154.028L31.1064 144.453Z" fill="#FAFAFA"/>
<path d="M26.8867 157.81L30.0892 155.941L30.0455 144.792L26.832 146.661L26.8867 157.81Z" fill="#FAFAFA"/>
<path d="M8.74282 73.8662L35.0627 58.6842C36.3279 58.0428 37.7265 57.7085 39.1451 57.7085C40.5637 57.7085 41.9623 58.0428 43.2275 58.6842L46.5066 60.597C47.6926 61.374 48.6795 62.4188 49.3876 63.6471C50.0958 64.8755 50.5054 66.2531 50.5835 67.6688V98.0328C50.5071 99.449 50.0982 100.827 49.3899 102.056C48.6816 103.284 47.6938 104.329 46.5066 105.105L20.2523 120.287C18.987 120.928 17.5884 121.262 16.1699 121.262C14.7513 121.262 13.3527 120.928 12.0875 120.287L8.8084 118.363C7.62117 117.587 6.63337 116.543 5.92505 115.314C5.21674 114.085 4.80782 112.707 4.73145 111.291V80.8834C4.80716 79.4821 5.20928 78.1179 5.90574 76.8995C6.6022 75.6812 7.57372 74.6425 8.74282 73.8662Z" fill="#1E959B"/>
<path opacity="0.1" d="M8.74282 73.8662L35.0627 58.6842C36.3279 58.0428 37.7265 57.7085 39.1451 57.7085C40.5637 57.7085 41.9623 58.0428 43.2275 58.6842L46.5066 60.597C47.6926 61.374 48.6795 62.4188 49.3876 63.6471C50.0958 64.8755 50.5054 66.2531 50.5835 67.6688V98.0328C50.5071 99.449 50.0982 100.827 49.3899 102.056C48.6816 103.284 47.6938 104.329 46.5066 105.105L20.2523 120.287C18.987 120.928 17.5884 121.262 16.1699 121.262C14.7513 121.262 13.3527 120.928 12.0875 120.287L8.8084 118.363C7.62117 117.587 6.63337 116.543 5.92505 115.314C5.21674 114.085 4.80782 112.707 4.73145 111.291V80.8834C4.80716 79.4821 5.20928 78.1179 5.90574 76.8995C6.6022 75.6812 7.57372 74.6425 8.74282 73.8662Z" fill="black"/>
<path d="M50.6277 67.483C50.6277 65.9637 49.8844 62.1928 45.9933 64.5756C42.1021 66.9584 22.9525 77.812 20.2855 79.386C18.4505 80.3902 17.0039 81.9792 16.1758 83.9001L18.2525 85.9987L50.6277 67.483Z" fill="#1E959B"/>
<path opacity="0.2" d="M50.6277 67.483C50.6277 65.9637 49.8844 62.1928 45.9933 64.5756C42.1021 66.9584 22.9525 77.812 20.2855 79.386C18.4505 80.3902 17.0039 81.9792 16.1758 83.9001L18.2525 85.9987L50.6277 67.483Z" fill="black"/>
<path d="M20.2527 120.287C18.0011 121.587 16.1758 120.527 16.1758 117.926V87.5618C16.2539 86.1461 16.6635 84.7686 17.3717 83.5402C18.0798 82.3118 19.0667 81.267 20.2527 80.49L46.5507 65.3189C48.8023 64.0073 50.6277 65.0676 50.6277 67.6689V98.033C50.5513 99.4491 50.1424 100.827 49.4341 102.056C48.7258 103.285 47.738 104.329 46.5507 105.105" fill="#1E959B"/>
<path opacity="0.1" d="M20.2527 120.287C18.0011 121.587 16.1758 120.527 16.1758 117.926V87.5618C16.2539 86.1461 16.6635 84.7686 17.3717 83.5402C18.0798 82.3118 19.0667 81.267 20.2527 80.49L46.5507 65.3189C48.8023 64.0073 50.6277 65.0676 50.6277 67.6689V98.033C50.5513 99.4491 50.1424 100.827 49.4341 102.056C48.7258 103.285 47.738 104.329 46.5507 105.105" fill="black"/>
<path d="M4.68848 111.291C4.76241 112.705 5.16799 114.082 5.87242 115.311C6.57685 116.539 7.56039 117.585 8.74357 118.363L12.0226 120.287C13.1738 120.864 14.4338 121.191 15.7203 121.248C17.0067 121.304 18.2906 121.088 19.4879 120.615C17.5751 121.336 16.1105 120.254 16.1105 117.926V87.5618C16.1613 86.1418 16.5712 84.758 17.3019 83.5395L5.87987 76.9158C5.15491 78.1169 4.74511 79.4816 4.68848 80.8834V111.291Z" fill="#1E959B"/>
<path opacity="0.2" d="M4.68848 111.291C4.76241 112.705 5.16799 114.082 5.87242 115.311C6.57685 116.539 7.56039 117.585 8.74357 118.363L12.0226 120.287C13.1738 120.864 14.4338 121.191 15.7203 121.248C17.0067 121.304 18.2906 121.088 19.4879 120.615C17.5751 121.336 16.1105 120.254 16.1105 117.926V87.5618C16.1613 86.1418 16.5712 84.758 17.3019 83.5395L5.87987 76.9158C5.15491 78.1169 4.74511 79.4816 4.68848 80.8834V111.291Z" fill="black"/>
<path d="M34.1883 76.9486L37.5986 82.9602L45.2497 79.8342C45.9711 79.5391 46.2552 80.4025 45.7306 81.2879L40.2655 90.6878L41.5334 98.7215C41.6318 99.4648 40.8776 100.558 40.2327 100.558L33.4014 100.35L26.57 108.438C25.9251 109.204 25.1709 109.007 25.3021 108.111L26.6028 98.5794L21.0831 95.5518C20.5584 95.2676 20.8426 94.0762 21.564 93.5406L29.2151 87.846L32.6253 77.8886C32.9314 76.9158 33.8823 76.3802 34.1883 76.9486Z" fill="#FAFAFA"/>
<path d="M403.869 215.653C390.753 221.894 369.559 221.894 356.465 215.653C343.37 209.411 343.348 199.257 356.465 193.06C369.581 186.862 390.785 186.819 403.869 193.06C416.952 199.301 416.963 209.422 403.869 215.653Z" fill="#E0E0E0"/>
<path d="M105.748 288.109C105.862 289.699 106.35 291.239 107.173 292.605C107.995 293.971 109.129 295.123 110.481 295.967L243.086 372.533C244.552 373.277 246.174 373.665 247.818 373.665C249.463 373.665 251.085 373.277 252.551 372.533L433.992 267.779C435.422 267.022 436.618 265.89 437.453 264.504C438.287 263.119 438.728 261.532 438.728 259.914C438.728 258.297 438.287 256.71 437.453 255.324C436.618 253.938 435.422 252.806 433.992 252.05L301.376 175.539C299.91 174.795 298.288 174.407 296.643 174.407C294.999 174.407 293.377 174.795 291.911 175.539L110.47 280.294C109.125 281.134 107.997 282.28 107.176 283.638C106.356 284.995 105.867 286.527 105.748 288.109Z" fill="#37474F"/>
<path d="M160.454 251.394L110.47 280.25C109.043 281.007 107.849 282.139 107.017 283.523C106.184 284.908 105.744 286.493 105.744 288.109C105.744 289.724 106.184 291.309 107.017 292.694C107.849 294.078 109.043 295.21 110.47 295.967L243.086 372.533C244.545 373.294 246.174 373.67 247.819 373.626V251.394H160.454Z" fill="#263238"/>
<path d="M101.3 280.425C99.9827 279.527 98.8948 278.332 98.124 276.937C97.3532 275.541 96.921 273.984 96.8623 272.391V114.144C96.9581 112.497 97.4417 110.896 98.2736 109.471C99.1056 108.047 100.262 106.839 101.65 105.946L283.091 1.18064C284.499 0.434053 286.063 0.0301068 287.656 0.00161918C289.25 -0.0268685 290.827 0.320906 292.261 1.01669C293.579 1.91161 294.667 3.10426 295.438 4.49807C296.209 5.89188 296.641 7.44766 296.699 9.03944V167.297C296.609 168.939 296.134 170.537 295.311 171.962C294.489 173.386 293.343 174.596 291.966 175.495L110.525 280.25C109.11 281.005 107.537 281.414 105.933 281.444C104.33 281.475 102.742 281.125 101.3 280.425Z" fill="#455A64"/>
<path d="M119.062 121.489L98.2944 109.466C97.4439 110.879 96.9663 112.485 96.9062 114.133V272.391C96.965 273.984 97.3971 275.541 98.1679 276.937C98.9388 278.332 100.027 279.527 101.344 280.425C102.779 281.116 104.357 281.461 105.95 281.43C107.543 281.4 109.106 280.996 110.514 280.25L131.161 268.303L119.062 121.489Z" fill="#263238"/>
<path d="M105.736 119.27V277.517C105.736 280.534 107.857 281.758 110.469 280.25L291.91 175.495C293.287 174.596 294.433 173.386 295.256 171.962C296.078 170.537 296.553 168.939 296.643 167.297V9.03946C296.643 6.02273 294.522 4.79855 291.91 6.30692L110.469 111.073C109.092 111.971 107.946 113.182 107.124 114.606C106.301 116.03 105.826 117.628 105.736 119.27Z" fill="#37474F"/>
<path d="M110.47 285.715L243.086 362.281C244.552 363.025 246.174 363.413 247.819 363.413C249.463 363.413 251.085 363.025 252.551 362.281L433.992 257.515C436.604 256.007 436.604 253.569 433.992 252.05L301.376 175.539C299.91 174.795 298.288 174.407 296.644 174.407C294.999 174.407 293.378 174.795 291.911 175.539L110.47 280.294C107.858 281.758 107.858 284.185 110.47 285.715Z" fill="#455A64"/>
<path d="M113.016 119.85L289.375 18.035C290.949 17.1278 292.217 17.8601 292.217 19.6745V156.662C292.164 157.648 291.879 158.608 291.385 159.462C290.892 160.317 290.203 161.043 289.375 161.581L113.016 263.417C111.453 264.325 110.186 263.592 110.186 261.778V124.768C110.239 123.784 110.524 122.826 111.015 121.972C111.507 121.117 112.192 120.391 113.016 119.85Z" fill="#FAFAFA"/>
<path d="M125.87 281.616L294.293 184.338C295.026 183.966 295.837 183.772 296.659 183.772C297.481 183.772 298.292 183.966 299.026 184.338L307.639 189.311C307.924 189.408 308.172 189.591 308.348 189.837C308.523 190.082 308.618 190.376 308.618 190.677C308.618 190.978 308.523 191.272 308.348 191.517C308.172 191.763 307.924 191.946 307.639 192.043L139.194 289.311C138.46 289.683 137.65 289.876 136.827 289.876C136.005 289.876 135.194 289.683 134.461 289.311L125.87 284.349C125.584 284.252 125.336 284.068 125.161 283.823C124.985 283.578 124.891 283.284 124.891 282.982C124.891 282.681 124.985 282.387 125.161 282.142C125.336 281.897 125.584 281.713 125.87 281.616Z" fill="#263238"/>
<path d="M148.07 294.437L316.493 197.159C317.226 196.787 318.037 196.593 318.859 196.593C319.681 196.593 320.492 196.787 321.225 197.159L374.215 227.763C374.5 227.86 374.748 228.044 374.924 228.289C375.1 228.534 375.194 228.828 375.194 229.129C375.194 229.431 375.1 229.725 374.924 229.97C374.748 230.215 374.5 230.399 374.215 230.496L205.978 327.621C205.245 327.995 204.434 328.19 203.611 328.19C202.789 328.19 201.978 327.995 201.245 327.621L148.07 297.148C147.787 297.051 147.541 296.869 147.367 296.626C147.193 296.383 147.1 296.091 147.1 295.792C147.1 295.494 147.193 295.202 147.367 294.959C147.541 294.716 147.787 294.533 148.07 294.437Z" fill="#263238"/>
<path d="M299.049 240.945L304.317 237.906C304.546 237.775 304.525 237.557 304.317 237.414L298.185 233.906C298.056 233.841 297.914 233.808 297.77 233.808C297.626 233.808 297.483 233.841 297.354 233.906L292.075 236.955C291.856 237.087 291.867 237.305 292.075 237.436L298.174 240.956C298.309 241.027 298.46 241.063 298.613 241.061C298.765 241.059 298.915 241.019 299.049 240.945ZM288.643 228.845L283.364 231.895C283.145 232.026 283.156 232.245 283.364 232.376L289.463 235.895C289.593 235.962 289.737 235.997 289.884 235.997C290.03 235.997 290.174 235.962 290.304 235.895L295.573 232.846C295.802 232.725 295.791 232.507 295.573 232.365L289.485 228.845C289.355 228.778 289.21 228.743 289.064 228.743C288.917 228.743 288.773 228.778 288.643 228.845ZM271.603 238.682L262.673 243.841C262.454 243.962 262.465 244.18 262.673 244.322L268.772 247.842C268.903 247.906 269.047 247.94 269.193 247.94C269.339 247.94 269.483 247.906 269.614 247.842L278.533 242.683C278.762 242.552 278.751 242.344 278.533 242.202L272.434 238.682C272.305 238.617 272.163 238.583 272.018 238.583C271.874 238.583 271.732 238.617 271.603 238.682ZM280.926 233.294L275.658 236.343C275.439 236.474 275.45 236.693 275.658 236.824L281.757 240.344C281.887 240.411 282.031 240.446 282.178 240.446C282.324 240.446 282.469 240.411 282.599 240.344L287.867 237.294C288.097 237.174 288.075 236.955 287.867 236.813L281.768 233.294C281.635 233.223 281.487 233.186 281.336 233.186C281.186 233.186 281.037 233.223 280.904 233.294H280.926ZM260.246 245.24L254.967 248.29C254.749 248.421 254.759 248.629 254.967 248.771L261.066 252.29C261.196 252.358 261.341 252.393 261.487 252.393C261.633 252.393 261.778 252.358 261.908 252.29L267.176 249.241C267.406 249.11 267.395 248.902 267.176 248.76L261.077 245.24C260.948 245.175 260.806 245.141 260.662 245.141C260.517 245.141 260.375 245.175 260.246 245.24ZM252.595 249.689L247.316 252.739C247.097 252.87 247.108 253.077 247.316 253.22L253.415 256.739C253.545 256.806 253.689 256.841 253.836 256.841C253.982 256.841 254.127 256.806 254.257 256.739L259.525 253.69C259.755 253.558 259.733 253.351 259.525 253.209L253.426 249.689C253.29 249.614 253.138 249.575 252.983 249.575C252.829 249.575 252.676 249.614 252.541 249.689H252.595ZM276.532 264.008L281.801 260.958C282.03 260.838 282.019 260.619 281.801 260.477L275.702 256.958C275.572 256.891 275.427 256.856 275.281 256.856C275.134 256.856 274.99 256.891 274.86 256.958L269.581 260.007C269.362 260.138 269.373 260.357 269.581 260.488L275.68 264.008C275.811 264.077 275.958 264.113 276.106 264.113C276.255 264.113 276.401 264.077 276.532 264.008ZM268.827 268.456L274.095 265.407C274.325 265.286 274.314 265.068 274.095 264.926L267.996 261.406C267.865 261.342 267.721 261.308 267.575 261.308C267.429 261.308 267.285 261.342 267.154 261.406L261.875 264.456C261.656 264.587 261.667 264.805 261.875 264.937L267.974 268.456C268.104 268.523 268.248 268.558 268.395 268.558C268.541 268.558 268.686 268.523 268.816 268.456H268.827ZM261.121 272.905L266.389 269.866C266.619 269.735 266.597 269.516 266.389 269.374L260.29 265.855C260.16 265.788 260.016 265.753 259.869 265.753C259.723 265.753 259.579 265.788 259.449 265.855L254.136 268.882C253.918 269.014 253.929 269.232 254.136 269.374L260.236 272.894C260.37 272.965 260.519 273.004 260.671 273.006C260.824 273.008 260.974 272.973 261.11 272.905H261.121ZM253.47 277.353L258.738 274.315C258.968 274.184 258.946 273.965 258.738 273.823L252.65 270.303C252.519 270.239 252.375 270.205 252.229 270.205C252.083 270.205 251.939 270.239 251.808 270.303L246.529 273.342C246.31 273.473 246.321 273.692 246.529 273.834L252.628 277.353C252.75 277.408 252.882 277.436 253.016 277.436C253.15 277.436 253.282 277.408 253.404 277.353H253.47ZM291.408 245.394L296.677 242.355C296.895 242.224 296.884 242.005 296.677 241.863L290.578 238.344C290.447 238.279 290.303 238.245 290.157 238.245C290.011 238.245 289.867 238.279 289.736 238.344L284.468 241.393C284.249 241.524 284.26 241.743 284.468 241.874L290.567 245.394C290.688 245.45 290.821 245.48 290.955 245.48C291.089 245.48 291.221 245.45 291.343 245.394H291.408ZM284.293 259.603L296.054 252.804C296.283 252.684 296.272 252.465 296.054 252.323L281.156 243.743C281.026 243.676 280.881 243.641 280.735 243.641C280.589 243.641 280.444 243.676 280.314 243.743L274.226 247.263C274.008 247.394 274.018 247.601 274.226 247.743L282.063 252.269C282.304 252.411 282.314 252.629 282.063 252.76L277.199 255.57C276.97 255.701 276.981 255.919 277.199 256.05L283.298 259.57C283.435 259.643 283.587 259.68 283.742 259.678C283.897 259.676 284.049 259.635 284.184 259.559L284.293 259.603ZM244.944 254.138L239.665 257.187C239.446 257.318 239.457 257.537 239.665 257.668L245.764 261.188C245.894 261.255 246.038 261.29 246.185 261.29C246.331 261.29 246.475 261.255 246.606 261.188L251.874 258.138C252.103 258.018 252.082 257.799 251.874 257.657L245.786 254.138C245.642 254.051 245.478 254.005 245.31 254.005C245.143 254.005 244.978 254.051 244.835 254.138H244.944ZM237.227 258.586L231.959 261.636C231.73 261.767 231.751 261.986 231.959 262.117L238.058 265.636C238.186 265.703 238.329 265.738 238.474 265.738C238.618 265.738 238.761 265.703 238.889 265.636L244.168 262.598C244.387 262.466 244.376 262.248 244.168 262.106L238.069 258.586C237.925 258.503 237.761 258.459 237.594 258.459C237.427 258.459 237.263 258.503 237.118 258.586H237.227ZM198.721 308.493C198.851 308.558 198.995 308.592 199.141 308.592C199.287 308.592 199.431 308.558 199.562 308.493L204.83 305.444C205.06 305.324 205.038 305.105 204.83 304.963L198.742 301.443C198.611 301.379 198.468 301.345 198.322 301.345C198.176 301.345 198.032 301.379 197.901 301.443L192.621 304.493C192.403 304.624 192.414 304.843 192.621 304.974L198.721 308.493ZM175.57 294.186L170.302 297.235C170.073 297.366 170.094 297.585 170.302 297.716L176.39 301.236C176.52 301.303 176.665 301.338 176.811 301.338C176.957 301.338 177.102 301.303 177.232 301.236L182.511 298.186C182.73 298.066 182.719 297.847 182.511 297.705L176.412 294.186C176.269 294.099 176.104 294.053 175.937 294.053C175.769 294.053 175.604 294.099 175.461 294.186H175.57ZM187.976 304.624C188.106 304.691 188.251 304.726 188.397 304.726C188.543 304.726 188.688 304.691 188.818 304.624L194.097 301.586C194.316 301.454 194.305 301.236 194.097 301.094L187.998 297.574C187.867 297.51 187.723 297.476 187.577 297.476C187.431 297.476 187.287 297.51 187.156 297.574L181.746 300.58C181.516 300.711 181.527 300.93 181.746 301.061L187.976 304.624ZM212.329 311.182L217.597 308.133C217.826 308.012 217.816 307.794 217.597 307.652L211.498 304.132C211.368 304.065 211.223 304.03 211.077 304.03C210.931 304.03 210.786 304.065 210.656 304.132L205.246 307.138C205.027 307.269 205.038 307.488 205.246 307.619L211.345 311.138C211.475 311.22 211.622 311.267 211.775 311.277C211.928 311.286 212.081 311.258 212.219 311.193L212.329 311.182ZM203.781 315.609C203.911 315.676 204.056 315.711 204.202 315.711C204.348 315.711 204.493 315.676 204.623 315.609L209.891 312.559C210.121 312.439 210.099 312.221 209.891 312.078L203.803 308.559C203.672 308.494 203.528 308.461 203.382 308.461C203.236 308.461 203.092 308.494 202.961 308.559L197.682 311.608C197.464 311.74 197.474 311.958 197.682 312.089L203.781 315.609ZM183.276 289.726L178.008 292.776C177.789 292.907 177.8 293.115 178.008 293.257L184.107 296.776C184.237 296.843 184.381 296.878 184.528 296.878C184.674 296.878 184.818 296.843 184.948 296.776L190.217 293.727C190.446 293.596 190.424 293.388 190.217 293.246L184.118 289.726C183.973 289.641 183.808 289.597 183.641 289.599C183.473 289.601 183.309 289.649 183.167 289.737L183.276 289.726ZM221.816 267.483L216.416 270.533C216.187 270.664 216.198 270.883 216.416 271.025L222.515 274.544C222.646 274.609 222.79 274.642 222.936 274.642C223.082 274.642 223.226 274.609 223.357 274.544L228.636 271.506C228.855 271.375 228.844 271.156 228.636 271.014L222.537 267.494C222.408 267.431 222.266 267.399 222.122 267.399C221.978 267.399 221.836 267.431 221.707 267.494L221.816 267.483ZM190.884 285.278L185.604 288.327C185.386 288.447 185.397 288.666 185.604 288.808L191.703 292.328C191.833 292.395 191.978 292.43 192.124 292.43C192.271 292.43 192.415 292.395 192.545 292.328L197.813 289.278C198.043 289.147 198.021 288.928 197.813 288.797L191.725 285.278C191.595 285.211 191.451 285.176 191.304 285.176C191.158 285.176 191.014 285.211 190.884 285.278ZM229.412 263.035L224.144 266.073C223.915 266.205 223.936 266.423 224.144 266.554L230.232 270.085C230.363 270.149 230.507 270.183 230.653 270.183C230.799 270.183 230.943 270.149 231.074 270.085L236.353 267.046C236.572 266.915 236.561 266.696 236.353 266.554L230.254 263.035C230.123 262.969 229.978 262.936 229.832 262.938C229.686 262.94 229.542 262.977 229.412 263.046V263.035ZM214.001 271.932L208.765 274.981C208.536 275.113 208.547 275.331 208.765 275.473L214.864 278.993C214.995 279.057 215.139 279.091 215.285 279.091C215.431 279.091 215.575 279.057 215.706 278.993L220.985 275.954C221.204 275.823 221.193 275.605 220.985 275.462L214.886 271.943C214.75 271.871 214.598 271.834 214.444 271.834C214.289 271.834 214.137 271.871 214.001 271.943V271.932ZM206.35 276.381L201.07 279.419C200.852 279.55 200.863 279.769 201.07 279.911L207.17 283.431C207.3 283.498 207.444 283.533 207.59 283.533C207.737 283.533 207.881 283.498 208.011 283.431L213.279 280.392C213.509 280.261 213.498 280.042 213.279 279.911L207.18 276.381C207.043 276.31 206.891 276.275 206.736 276.277C206.582 276.279 206.431 276.318 206.295 276.391L206.35 276.381ZM198.644 280.829L193.365 283.868C193.146 283.999 193.157 284.217 193.365 284.36L199.464 287.879C199.595 287.944 199.739 287.977 199.885 287.977C200.031 287.977 200.174 287.944 200.305 287.879L205.574 284.83C205.803 284.698 205.792 284.48 205.574 284.349L199.431 280.906C199.305 280.831 199.164 280.786 199.018 280.774C198.872 280.763 198.725 280.785 198.589 280.84L198.644 280.829ZM237.993 286.294L243.272 283.245C243.49 283.114 243.48 282.895 243.272 282.764L237.184 279.201C237.053 279.136 236.909 279.102 236.763 279.102C236.617 279.102 236.473 279.136 236.342 279.201L231.074 282.239C230.844 282.37 230.866 282.589 231.074 282.731L237.162 286.251C237.289 286.313 237.429 286.347 237.571 286.349C237.712 286.351 237.853 286.321 237.982 286.261L237.993 286.294ZM305.683 219.041L300.415 222.09C300.185 222.222 300.207 222.44 300.415 222.571L306.503 226.091C306.633 226.158 306.777 226.193 306.924 226.193C307.07 226.193 307.214 226.158 307.345 226.091L312.624 223.041C312.842 222.921 312.831 222.702 312.624 222.56L306.525 219.041C306.396 218.967 306.251 218.925 306.103 218.919C305.954 218.914 305.806 218.944 305.672 219.008L305.683 219.041ZM296.36 224.429L291.08 227.479C290.862 227.599 290.873 227.818 291.08 227.96L297.18 231.479C297.31 231.546 297.454 231.582 297.6 231.582C297.747 231.582 297.891 231.546 298.021 231.479L303.311 228.441C303.541 228.31 303.53 228.091 303.311 227.96L297.212 224.44C297.083 224.363 296.937 224.318 296.786 224.311C296.635 224.303 296.485 224.332 296.349 224.397L296.36 224.429ZM313.389 214.592L308.121 217.642C307.902 217.773 307.913 217.992 308.121 218.123L314.22 221.642C314.35 221.709 314.494 221.744 314.64 221.744C314.787 221.744 314.931 221.709 315.061 221.642L320.33 218.593C320.559 218.462 320.537 218.254 320.33 218.112L314.231 214.592C314.102 214.518 313.957 214.477 313.808 214.471C313.66 214.465 313.512 214.496 313.378 214.559L313.389 214.592ZM273.505 255.733L278.773 252.684C279.003 252.553 278.981 252.345 278.773 252.203L272.685 248.683C272.555 248.616 272.411 248.581 272.264 248.581C272.118 248.581 271.973 248.616 271.843 248.683L266.564 251.733C266.345 251.864 266.356 252.072 266.564 252.214L272.663 255.733C272.794 255.794 272.938 255.822 273.082 255.816C273.227 255.811 273.368 255.771 273.494 255.701L273.505 255.733ZM321.947 210.166C321.817 210.098 321.673 210.063 321.526 210.063C321.38 210.063 321.236 210.098 321.106 210.166L315.815 213.139C315.597 213.259 315.608 213.477 315.815 213.62L321.914 217.139C322.045 217.206 322.189 217.241 322.335 217.241C322.482 217.241 322.626 217.206 322.756 217.139L328.024 214.089C328.254 213.958 328.232 213.74 328.024 213.609L321.947 210.166ZM245.698 281.835L250.978 278.796C251.196 278.665 251.185 278.446 250.978 278.304L244.835 274.752C244.704 274.687 244.56 274.654 244.414 274.654C244.268 274.654 244.124 274.687 243.993 274.752L238.725 277.791C238.495 277.922 238.517 278.14 238.725 278.282L244.824 281.802C244.956 281.875 245.105 281.913 245.256 281.913C245.407 281.913 245.555 281.875 245.687 281.802L245.698 281.835ZM340.222 227.271L345.491 224.222C345.72 224.102 345.699 223.883 345.491 223.741L339.392 220.221C339.261 220.157 339.117 220.123 338.971 220.123C338.825 220.123 338.681 220.157 338.55 220.221L333.282 223.271C333.063 223.402 333.074 223.621 333.282 223.752L339.381 227.271C339.512 227.332 339.656 227.36 339.8 227.354C339.944 227.349 340.085 227.309 340.212 227.238L340.222 227.271ZM323.827 226.692L329.096 223.642C329.325 223.522 329.303 223.304 329.096 223.162L322.997 219.642C322.866 219.575 322.722 219.54 322.576 219.54C322.429 219.54 322.285 219.575 322.155 219.642L316.887 222.692C316.657 222.823 316.679 223.041 316.887 223.172L322.986 226.692C323.114 226.749 323.254 226.775 323.394 226.77C323.534 226.764 323.671 226.726 323.794 226.659L323.827 226.692ZM330.67 215.193C330.541 215.126 330.399 215.091 330.254 215.091C330.11 215.091 329.967 215.126 329.839 215.193L324.56 218.243C324.341 218.374 324.352 218.593 324.56 218.724L330.659 222.243C330.789 222.311 330.933 222.346 331.079 222.346C331.226 222.346 331.37 222.311 331.5 222.243L336.769 219.194C336.998 219.063 336.976 218.855 336.769 218.713L330.67 215.193ZM332.276 214.232L347.087 222.779C347.217 222.846 347.361 222.881 347.507 222.881C347.654 222.881 347.798 222.846 347.928 222.779L353.197 219.729C353.426 219.598 353.404 219.391 353.197 219.249L338.386 210.701C338.256 210.634 338.112 210.599 337.965 210.599C337.819 210.599 337.675 210.634 337.545 210.701L332.276 213.74C332.014 213.86 332.025 214.079 332.276 214.232ZM314.395 224.069L309.126 227.118C308.897 227.249 308.919 227.468 309.126 227.599L315.214 231.119C315.344 231.186 315.489 231.221 315.635 231.221C315.781 231.221 315.926 231.186 316.056 231.119L321.335 228.08C321.554 227.949 321.543 227.73 321.335 227.588L315.225 224.069C315.094 224.004 314.95 223.971 314.804 223.971C314.658 223.971 314.514 224.004 314.384 224.069H314.395ZM256.388 257.559L251.12 260.608C250.89 260.739 250.912 260.958 251.12 261.089L257.208 264.62C257.339 264.684 257.483 264.718 257.629 264.718C257.775 264.718 257.919 264.684 258.049 264.62L263.329 261.581C263.547 261.45 263.536 261.231 263.329 261.089L257.23 257.57C257.101 257.496 256.957 257.454 256.809 257.447C256.661 257.439 256.513 257.466 256.377 257.526L256.388 257.559ZM331.664 231.72C331.794 231.787 331.939 231.822 332.085 231.822C332.231 231.822 332.376 231.787 332.506 231.72L337.774 228.681C337.993 228.55 337.982 228.332 337.774 228.189L331.675 224.67C331.544 224.605 331.4 224.572 331.254 224.572C331.108 224.572 330.964 224.605 330.833 224.67L325.565 227.719C325.336 227.851 325.357 228.069 325.565 228.2L331.664 231.72ZM264.083 253.132L258.815 256.182C258.585 256.313 258.607 256.531 258.815 256.663L264.946 260.138C265.075 260.205 265.217 260.24 265.362 260.24C265.506 260.24 265.649 260.205 265.777 260.138L271.056 257.089C271.275 256.969 271.264 256.75 271.056 256.608L264.957 253.088C264.823 253.017 264.674 252.978 264.521 252.976C264.369 252.975 264.219 253.009 264.083 253.077V253.132ZM206.317 304.089C206.447 304.156 206.591 304.191 206.738 304.191C206.884 304.191 207.028 304.156 207.159 304.089L212.427 301.039C212.656 300.919 212.646 300.7 212.427 300.558L206.328 297.039C206.198 296.971 206.053 296.936 205.907 296.936C205.761 296.936 205.616 296.971 205.486 297.039L200.207 300.088C199.988 300.219 199.999 300.438 200.207 300.569L206.317 304.089ZM194.72 293.158L189.452 296.208C189.222 296.339 189.244 296.558 189.452 296.689L195.54 300.208C195.67 300.275 195.814 300.31 195.961 300.31C196.107 300.31 196.251 300.275 196.381 300.208L201.661 297.159C201.879 297.039 201.868 296.82 201.661 296.678L195.562 293.158C195.434 293.086 195.291 293.045 195.145 293.04C194.998 293.034 194.853 293.063 194.72 293.126V293.158ZM214.864 299.64L220.133 296.59C220.362 296.459 220.351 296.252 220.133 296.11L214.034 292.59C213.904 292.523 213.759 292.488 213.613 292.488C213.466 292.488 213.322 292.523 213.192 292.59L207.913 295.64C207.694 295.771 207.705 295.978 207.913 296.12L214.012 299.64C214.146 299.704 214.294 299.734 214.442 299.729C214.591 299.723 214.736 299.681 214.864 299.607V299.64ZM222.515 295.191L227.795 292.142C228.013 292.011 228.002 291.792 227.795 291.661L221.696 288.141C221.566 288.074 221.421 288.039 221.275 288.039C221.129 288.039 220.984 288.074 220.854 288.141L215.586 291.191C215.356 291.311 215.367 291.53 215.586 291.672L221.685 295.191C221.827 295.255 221.982 295.281 222.137 295.267C222.292 295.254 222.441 295.202 222.57 295.115L222.515 295.191ZM230.221 290.743L235.501 287.693C235.719 287.562 235.708 287.343 235.501 287.212L229.401 283.693C229.271 283.626 229.127 283.591 228.981 283.591C228.834 283.591 228.69 283.626 228.56 283.693L223.292 286.731C223.062 286.863 223.073 287.081 223.292 287.223L229.391 290.743C229.527 290.815 229.679 290.852 229.833 290.852C229.987 290.852 230.139 290.815 230.276 290.743H230.221ZM202.371 288.71L197.103 291.759C196.873 291.89 196.895 292.098 197.103 292.24L203.202 295.76C203.33 295.827 203.473 295.862 203.617 295.862C203.762 295.862 203.904 295.827 204.033 295.76L209.312 292.71C209.53 292.579 209.52 292.371 209.312 292.229L203.3 288.699C203.168 288.623 203.018 288.581 202.866 288.577C202.713 288.573 202.562 288.608 202.426 288.677L202.371 288.71ZM210.077 284.261L204.809 287.311C204.59 287.442 204.601 287.65 204.809 287.792L210.908 291.311C211.038 291.378 211.182 291.413 211.328 291.413C211.475 291.413 211.619 291.378 211.749 291.311L217.018 288.262C217.247 288.13 217.225 287.923 217.018 287.781L210.951 284.25C210.829 284.176 210.692 284.132 210.549 284.121C210.407 284.109 210.264 284.131 210.132 284.185L210.077 284.261ZM240.911 266.467L235.643 269.505C235.413 269.637 235.424 269.855 235.643 269.997L241.742 273.517C241.873 273.581 242.017 273.615 242.162 273.615C242.308 273.615 242.452 273.581 242.583 273.517L247.863 270.478C248.081 270.347 248.07 270.128 247.863 269.986L241.764 266.467C241.641 266.404 241.506 266.368 241.368 266.363C241.23 266.357 241.093 266.381 240.966 266.434L240.911 266.467ZM233.205 270.915L227.926 273.954C227.707 274.085 227.718 274.304 227.926 274.446L234.025 277.965C234.155 278.033 234.299 278.068 234.446 278.068C234.592 278.068 234.736 278.033 234.867 277.965L240.135 274.927C240.364 274.796 240.354 274.577 240.135 274.435L234.036 270.915C233.916 270.856 233.785 270.822 233.651 270.816C233.518 270.811 233.384 270.833 233.26 270.883L233.205 270.915ZM248.617 262.018L243.348 265.057C243.119 265.188 243.13 265.407 243.348 265.538L249.447 269.068C249.578 269.133 249.722 269.166 249.868 269.166C250.014 269.166 250.158 269.133 250.289 269.068L255.568 266.03C255.787 265.899 255.776 265.68 255.568 265.538L249.469 262.018C249.347 261.953 249.212 261.916 249.074 261.911C248.936 261.905 248.798 261.931 248.671 261.986L248.617 262.018ZM217.848 279.813L212.569 282.862C212.35 282.982 212.361 283.201 212.569 283.343L218.668 286.863C218.799 286.927 218.943 286.961 219.089 286.961C219.235 286.961 219.379 286.927 219.51 286.863L224.778 283.813C225.008 283.682 224.986 283.463 224.778 283.332L218.69 279.813C218.56 279.746 218.416 279.711 218.269 279.711C218.123 279.711 217.978 279.746 217.848 279.813ZM225.554 275.364L220.275 278.403C220.056 278.534 220.067 278.752 220.275 278.894L226.374 282.414C226.505 282.479 226.649 282.512 226.795 282.512C226.941 282.512 227.085 282.479 227.215 282.414L232.484 279.364C232.713 279.233 232.702 279.015 232.484 278.884L226.385 275.353C226.257 275.287 226.116 275.25 225.972 275.247C225.828 275.243 225.685 275.272 225.554 275.331V275.364ZM219.925 306.777L225.193 303.728C225.423 303.597 225.412 303.389 225.193 303.247L219.094 299.727C218.964 299.66 218.82 299.625 218.674 299.625C218.527 299.625 218.383 299.66 218.253 299.727L212.952 302.766C212.733 302.886 212.744 303.105 212.952 303.247L219.051 306.766C219.187 306.836 219.338 306.87 219.491 306.866C219.643 306.863 219.793 306.821 219.925 306.745V306.777ZM174.696 302.209L168.597 298.689C168.466 298.624 168.322 298.591 168.176 298.591C168.03 298.591 167.886 298.624 167.755 298.689L162.487 301.673C162.257 301.804 162.268 302.023 162.487 302.154L168.575 305.673C168.705 305.741 168.849 305.776 168.996 305.776C169.142 305.776 169.287 305.741 169.417 305.673L174.696 302.635C174.947 302.536 174.936 302.318 174.696 302.176V302.209ZM186.249 305.597L180.15 302.077C180.019 302.013 179.875 301.979 179.729 301.979C179.583 301.979 179.439 302.013 179.309 302.077L171.198 306.766C170.969 306.898 170.98 307.116 171.198 307.247L177.297 310.778C177.428 310.842 177.572 310.876 177.718 310.876C177.864 310.876 178.008 310.842 178.139 310.778L186.26 306.1C186.501 305.925 186.49 305.706 186.249 305.564V305.597ZM165.34 295.399L159.241 291.836C159.11 291.771 158.966 291.738 158.82 291.738C158.674 291.738 158.53 291.771 158.399 291.836L151.928 295.574C151.71 295.705 151.721 295.924 151.928 296.066L158.027 299.585C158.158 299.65 158.302 299.683 158.448 299.683C158.594 299.683 158.738 299.65 158.869 299.585L165.362 295.836C165.591 295.727 165.58 295.508 165.34 295.366V295.399ZM170.313 292.524C170.443 292.592 170.587 292.627 170.734 292.627C170.88 292.627 171.024 292.592 171.155 292.524L176.434 289.475C176.652 289.355 176.642 289.136 176.434 288.994L170.335 285.474C170.204 285.41 170.06 285.376 169.914 285.376C169.768 285.376 169.624 285.41 169.493 285.474L164.225 288.524C163.995 288.655 164.006 288.874 164.225 289.005L170.313 292.524ZM196.983 309.455L190.884 305.936C190.755 305.869 190.613 305.834 190.468 305.834C190.324 305.834 190.181 305.869 190.053 305.936L179.91 311.783C179.68 311.915 179.691 312.133 179.91 312.275L186.009 315.795C186.14 315.859 186.284 315.893 186.43 315.893C186.575 315.893 186.719 315.859 186.85 315.795L196.994 309.947C197.245 309.783 197.223 309.565 196.983 309.422V309.455ZM202.043 316.593L195.944 313.073C195.813 313.009 195.669 312.975 195.523 312.975C195.377 312.975 195.233 313.009 195.103 313.073L188.621 316.822C188.391 316.953 188.402 317.172 188.621 317.314L194.72 320.834C194.85 320.901 194.994 320.936 195.141 320.936C195.287 320.936 195.432 320.901 195.562 320.834L202.054 317.095C202.306 316.975 202.284 316.702 202.043 316.56V316.593ZM227.62 259.45C227.751 259.514 227.895 259.548 228.041 259.548C228.187 259.548 228.331 259.514 228.462 259.45L233.73 256.411C233.959 256.28 233.948 256.061 233.73 255.919L227.631 252.4C227.501 252.333 227.356 252.298 227.21 252.298C227.064 252.298 226.919 252.333 226.789 252.4L221.521 255.438C221.291 255.569 221.302 255.788 221.521 255.93L227.62 259.45ZM212.208 268.347C212.338 268.414 212.483 268.449 212.629 268.449C212.776 268.449 212.92 268.414 213.05 268.347L218.318 265.308C218.548 265.177 218.537 264.959 218.318 264.816L212.197 261.231C212.067 261.167 211.923 261.133 211.777 261.133C211.631 261.133 211.487 261.167 211.356 261.231L206.076 264.27C205.858 264.401 205.869 264.62 206.076 264.762L212.208 268.347ZM178.03 288.021C178.158 288.088 178.3 288.123 178.445 288.123C178.59 288.123 178.732 288.088 178.86 288.021L184.14 284.972C184.358 284.851 184.347 284.633 184.14 284.491L178.041 280.971C177.91 280.904 177.766 280.869 177.62 280.869C177.473 280.869 177.329 280.904 177.199 280.971L171.931 284.021C171.701 284.152 171.723 284.371 171.931 284.502L178.03 288.021ZM219.914 263.844C220.045 263.908 220.189 263.942 220.335 263.942C220.481 263.942 220.625 263.908 220.756 263.844L226.024 260.805C226.254 260.674 226.243 260.455 226.024 260.313L219.903 256.859C219.772 256.795 219.628 256.761 219.482 256.761C219.336 256.761 219.192 256.795 219.062 256.859L213.782 259.898C213.564 260.029 213.575 260.248 213.782 260.39L219.914 263.844ZM204.503 272.741C204.633 272.805 204.777 272.839 204.923 272.839C205.069 272.839 205.213 272.805 205.344 272.741L210.613 269.691C210.842 269.56 210.82 269.342 210.613 269.199L204.524 265.68C204.394 265.615 204.25 265.582 204.104 265.582C203.958 265.582 203.814 265.615 203.683 265.68L198.404 268.719C198.185 268.85 198.196 269.068 198.404 269.21L204.503 272.741ZM206.284 317.117C206.154 317.05 206.01 317.015 205.863 317.015C205.717 317.015 205.573 317.05 205.443 317.117L197.332 321.795C197.103 321.927 197.114 322.145 197.332 322.287L203.431 325.807C203.562 325.871 203.706 325.905 203.852 325.905C203.998 325.905 204.142 325.871 204.273 325.807L212.383 321.118C212.613 320.987 212.602 320.768 212.383 320.637L206.284 317.117ZM193.463 279.146C193.593 279.213 193.737 279.248 193.884 279.248C194.03 279.248 194.175 279.213 194.305 279.146L199.573 276.096C199.803 275.965 199.781 275.747 199.573 275.615L193.463 272.161C193.333 272.094 193.189 272.059 193.042 272.059C192.896 272.059 192.752 272.094 192.621 272.161L187.342 275.211C187.124 275.331 187.135 275.55 187.342 275.692L193.463 279.146ZM185.812 283.594C185.942 283.662 186.086 283.697 186.233 283.697C186.379 283.697 186.523 283.662 186.654 283.594L191.922 280.545C192.151 280.414 192.13 280.206 191.922 280.064L185.714 276.534C185.585 276.467 185.443 276.432 185.298 276.432C185.154 276.432 185.011 276.467 184.883 276.534L179.604 279.583C179.385 279.714 179.396 279.933 179.604 280.064L185.812 283.594ZM349.142 234.693C349.011 234.628 348.867 234.595 348.721 234.595C348.575 234.595 348.431 234.628 348.3 234.693L335.326 242.18C335.096 242.311 335.107 242.53 335.326 242.672L341.425 246.191C341.555 246.259 341.699 246.294 341.846 246.294C341.992 246.294 342.136 246.259 342.266 246.191L355.23 238.704C355.448 238.573 355.437 238.354 355.23 238.212L349.142 234.693ZM332.112 244.53C331.981 244.465 331.837 244.432 331.691 244.432C331.546 244.432 331.402 244.465 331.271 244.53L325.991 247.569C325.773 247.7 325.784 247.918 325.991 248.06L332.09 251.58C332.221 251.645 332.365 251.678 332.511 251.678C332.657 251.678 332.801 251.645 332.932 251.58L338.2 248.541C338.43 248.41 338.408 248.192 338.2 248.05L332.112 244.53ZM227.707 302.296L232.987 299.246C233.205 299.115 233.194 298.897 232.987 298.766L226.888 295.246C226.757 295.179 226.613 295.144 226.467 295.144C226.32 295.144 226.176 295.179 226.046 295.246L220.778 298.296C220.548 298.416 220.559 298.634 220.778 298.776L226.877 302.296C226.995 302.349 227.124 302.377 227.254 302.377C227.384 302.377 227.512 302.349 227.631 302.296H227.707ZM316.69 253.427C316.559 253.363 316.415 253.329 316.269 253.329C316.123 253.329 315.979 253.363 315.848 253.427L310.58 256.466C310.35 256.597 310.372 256.816 310.58 256.958L316.679 260.477C316.808 260.542 316.95 260.575 317.094 260.575C317.238 260.575 317.381 260.542 317.51 260.477L322.789 257.428C323.007 257.296 322.997 257.078 322.789 256.947L316.69 253.427ZM356.847 230.244C356.717 230.177 356.573 230.142 356.426 230.142C356.28 230.142 356.136 230.177 356.006 230.244L350.737 233.283C350.508 233.414 350.53 233.633 350.737 233.775L356.836 237.294C356.967 237.359 357.111 237.392 357.257 237.392C357.403 237.392 357.547 237.359 357.678 237.294L362.946 234.256C363.176 234.125 363.154 233.906 362.946 233.764L356.847 230.244ZM370.532 229.315L355.776 220.79C355.645 220.725 355.501 220.692 355.355 220.692C355.209 220.692 355.065 220.725 354.935 220.79L349.655 223.839C349.437 223.97 349.448 224.189 349.655 224.32L364.498 232.813C364.629 232.877 364.773 232.911 364.919 232.911C365.065 232.911 365.209 232.877 365.34 232.813L370.608 229.774C370.838 229.676 370.816 229.457 370.532 229.315ZM287.769 270.063C287.638 269.996 287.494 269.961 287.348 269.961C287.201 269.961 287.057 269.996 286.927 270.063L280.445 273.812C280.216 273.943 280.227 274.162 280.445 274.293L286.544 277.812C286.675 277.88 286.819 277.915 286.965 277.915C287.112 277.915 287.256 277.88 287.386 277.812L293.879 274.063C294.097 273.932 294.086 273.714 293.879 273.582L287.769 270.063ZM307.246 258.816C307.116 258.749 306.972 258.714 306.825 258.714C306.679 258.714 306.535 258.749 306.405 258.816L298.283 263.494C298.065 263.625 298.076 263.844 298.283 263.986L304.382 267.505C304.513 267.57 304.657 267.603 304.803 267.603C304.949 267.603 305.093 267.57 305.224 267.505L313.334 262.827C313.564 262.696 313.553 262.477 313.334 262.335L307.246 258.816ZM269.974 280.359C269.843 280.295 269.699 280.261 269.553 280.261C269.408 280.261 269.264 280.295 269.133 280.359L225.74 305.422C225.51 305.542 225.521 305.761 225.74 305.903L231.839 309.422C231.97 309.487 232.114 309.521 232.26 309.521C232.406 309.521 232.55 309.487 232.681 309.422L276.084 284.36C276.314 284.228 276.292 284.01 276.084 283.879L269.974 280.359ZM224.144 306.832C224.014 306.765 223.87 306.73 223.723 306.73C223.577 306.73 223.433 306.765 223.302 306.832L216.81 310.581C216.58 310.712 216.602 310.931 216.81 311.062L222.909 314.581C223.039 314.649 223.183 314.684 223.33 314.684C223.476 314.684 223.62 314.649 223.751 314.581L230.232 310.832C230.462 310.701 230.451 310.494 230.232 310.352L224.144 306.832ZM278.904 275.211C278.774 275.144 278.63 275.109 278.483 275.109C278.337 275.109 278.193 275.144 278.063 275.211L271.57 278.949C271.352 279.08 271.362 279.299 271.57 279.441L277.669 282.961C277.799 283.028 277.944 283.063 278.09 283.063C278.236 283.063 278.381 283.028 278.511 282.961L285.003 279.222C285.222 279.091 285.211 278.873 285.003 278.731L278.904 275.211ZM215.214 311.98C215.083 311.916 214.939 311.882 214.793 311.882C214.647 311.882 214.503 311.916 214.373 311.98L207.891 315.729C207.661 315.86 207.672 316.079 207.891 316.221L213.99 319.741C214.12 319.808 214.264 319.843 214.411 319.843C214.557 319.843 214.701 319.808 214.832 319.741L221.324 316.002C221.543 315.871 221.532 315.653 221.324 315.511L215.214 311.98ZM296.753 264.904C296.622 264.839 296.478 264.806 296.332 264.806C296.186 264.806 296.042 264.839 295.912 264.904L289.419 268.653C289.2 268.773 289.211 268.992 289.419 269.134L295.518 272.653C295.649 272.718 295.793 272.752 295.939 272.752C296.085 272.752 296.229 272.718 296.36 272.653L302.841 268.904C303.071 268.773 303.06 268.555 302.841 268.412L296.753 264.904ZM324.33 248.979C324.199 248.914 324.055 248.88 323.909 248.88C323.763 248.88 323.619 248.914 323.488 248.979L318.22 252.017C318.001 252.148 318.012 252.367 318.22 252.509L324.319 256.029C324.449 256.096 324.594 256.131 324.74 256.131C324.886 256.131 325.031 256.096 325.161 256.029L330.429 252.99C330.659 252.859 330.637 252.64 330.429 252.498L324.33 248.979ZM341.217 236.715L346.496 233.676C346.715 233.545 346.704 233.327 346.496 233.185L340.397 229.665C340.267 229.598 340.123 229.563 339.977 229.563C339.83 229.563 339.686 229.598 339.556 229.665L334.287 232.704C334.058 232.835 334.08 233.053 334.287 233.195L340.376 236.715C340.505 236.778 340.647 236.81 340.791 236.81C340.935 236.81 341.077 236.778 341.206 236.715H341.217ZM306.765 236.496L312.034 233.447C312.263 233.316 312.252 233.108 312.034 232.966L305.935 229.446C305.804 229.379 305.66 229.344 305.514 229.344C305.367 229.344 305.223 229.379 305.093 229.446L299.814 232.496C299.595 232.627 299.606 232.835 299.814 232.977L305.913 236.496C306.043 236.563 306.187 236.598 306.334 236.598C306.48 236.598 306.624 236.563 306.754 236.496H306.765ZM289.277 266.696L304.689 257.799C304.918 257.668 304.907 257.449 304.689 257.307L298.589 253.788C298.459 253.721 298.315 253.686 298.169 253.686C298.022 253.686 297.878 253.721 297.748 253.788L282.336 262.685C282.107 262.816 282.118 263.024 282.336 263.166L288.446 266.696C288.576 266.764 288.721 266.799 288.867 266.799C289.014 266.799 289.158 266.764 289.288 266.696H289.277ZM332.648 241.153C332.779 241.217 332.923 241.251 333.069 241.251C333.215 241.251 333.359 241.217 333.49 241.153L338.769 238.114C338.987 237.983 338.976 237.764 338.769 237.622L332.67 234.103C332.539 234.038 332.395 234.004 332.249 234.004C332.103 234.004 331.959 234.038 331.828 234.103L326.538 237.185C326.308 237.316 326.33 237.535 326.538 237.677L332.648 241.153ZM324.778 236.136L330.057 233.097C330.276 232.966 330.265 232.747 330.057 232.605L323.958 229.086C323.828 229.021 323.684 228.988 323.538 228.988C323.392 228.988 323.248 229.021 323.117 229.086L317.848 232.135C317.619 232.266 317.641 232.485 317.848 232.627L323.937 236.147C324.073 236.205 324.221 236.23 324.369 236.22C324.517 236.211 324.661 236.167 324.789 236.092L324.778 236.136ZM281.571 271.112L286.84 268.063C287.069 267.942 287.058 267.724 286.84 267.582L280.741 264.062C280.61 263.995 280.466 263.96 280.32 263.96C280.173 263.96 280.029 263.995 279.899 264.062L274.62 267.112C274.401 267.243 274.412 267.462 274.62 267.593L280.719 271.112C280.849 271.188 280.996 271.231 281.146 271.237C281.297 271.242 281.447 271.211 281.582 271.145L281.571 271.112ZM315.619 250.957C315.75 251.022 315.894 251.055 316.039 251.055C316.185 251.055 316.329 251.022 316.46 250.957L321.729 247.918C321.958 247.787 321.936 247.569 321.729 247.427L315.63 243.907C315.499 243.84 315.355 243.805 315.209 243.805C315.062 243.805 314.918 243.84 314.788 243.907L309.498 247.022C309.279 247.153 309.29 247.372 309.498 247.514L315.619 250.957ZM243.031 293.355L248.311 290.316C248.529 290.185 248.518 289.967 248.311 289.836L242.19 286.371C242.059 286.306 241.915 286.273 241.769 286.273C241.623 286.273 241.479 286.306 241.348 286.371L236.091 289.366C235.861 289.497 235.883 289.715 236.091 289.857L242.179 293.377C242.311 293.449 242.459 293.488 242.609 293.49C242.76 293.492 242.909 293.457 243.042 293.388L243.031 293.355ZM250.683 288.907L255.962 285.868C256.18 285.737 256.169 285.518 255.962 285.376L249.863 281.857C249.732 281.792 249.588 281.758 249.442 281.758C249.296 281.758 249.152 281.792 249.021 281.857L243.742 284.917C243.512 285.048 243.534 285.267 243.742 285.409L249.841 288.928C249.979 289.008 250.134 289.05 250.293 289.052C250.452 289.054 250.609 289.015 250.748 288.939L250.683 288.907ZM235.271 297.815L240.55 294.765C240.769 294.634 240.758 294.415 240.55 294.284L234.451 290.765C234.321 290.698 234.177 290.663 234.03 290.663C233.884 290.663 233.74 290.698 233.61 290.765L228.341 293.803C228.112 293.934 228.123 294.153 228.341 294.295L234.44 297.815C234.575 297.893 234.728 297.938 234.884 297.943C235.041 297.949 235.196 297.916 235.337 297.847L235.271 297.815ZM266.105 280.009L271.373 276.971C271.603 276.84 271.581 276.621 271.373 276.479L265.285 272.959C265.154 272.895 265.01 272.861 264.864 272.861C264.718 272.861 264.575 272.895 264.444 272.959L259.164 276.009C258.946 276.14 258.957 276.359 259.164 276.49L265.263 280.02C265.401 280.099 265.556 280.143 265.714 280.146C265.873 280.15 266.03 280.114 266.171 280.042L266.105 280.009ZM258.399 284.458L263.668 281.419C263.897 281.288 263.875 281.07 263.668 280.927L257.569 277.408C257.438 277.341 257.294 277.306 257.148 277.306C257.001 277.306 256.857 277.341 256.727 277.408L251.459 280.447C251.24 280.578 251.251 280.796 251.459 280.938L257.558 284.458C257.694 284.539 257.849 284.584 258.007 284.59C258.165 284.595 258.323 284.561 258.465 284.491L258.399 284.458ZM273.811 275.561L279.079 272.522C279.309 272.391 279.298 272.172 279.079 272.03L272.98 268.511C272.849 268.446 272.705 268.413 272.559 268.413C272.413 268.413 272.269 268.446 272.138 268.511L266.859 271.56C266.641 271.691 266.652 271.91 266.859 272.041L272.958 275.561C273.095 275.646 273.252 275.695 273.413 275.7C273.574 275.706 273.734 275.669 273.876 275.594L273.811 275.561ZM309.072 209.739C309.202 209.804 309.346 209.837 309.492 209.837C309.638 209.837 309.782 209.804 309.913 209.739L315.181 206.701C315.411 206.57 315.389 206.351 315.181 206.209L313.553 205.269C313.422 205.204 313.278 205.171 313.132 205.171C312.986 205.171 312.842 205.204 312.711 205.269L307.443 208.307C307.213 208.439 307.224 208.657 307.443 208.799L309.072 209.739ZM271.144 234.212C271.274 234.279 271.418 234.314 271.565 234.314C271.711 234.314 271.855 234.279 271.985 234.212L277.265 231.173C277.483 231.042 277.472 230.824 277.265 230.692L271.166 227.162C271.035 227.097 270.891 227.064 270.745 227.064C270.599 227.064 270.455 227.097 270.324 227.162L265.056 230.201C264.826 230.332 264.848 230.55 265.056 230.692L271.144 234.212ZM286.566 225.315C286.697 225.379 286.841 225.413 286.987 225.413C287.133 225.413 287.277 225.379 287.408 225.315L292.676 222.276C292.906 222.145 292.884 221.926 292.676 221.784L286.577 218.265C286.446 218.2 286.302 218.167 286.156 218.167C286.01 218.167 285.866 218.2 285.736 218.265L280.467 221.303C280.249 221.435 280.26 221.653 280.467 221.795L286.566 225.315ZM261.733 239.644C261.864 239.709 262.008 239.742 262.154 239.742C262.3 239.742 262.444 239.709 262.575 239.644L267.854 236.595C268.072 236.464 268.062 236.245 267.854 236.114L261.755 232.594C261.625 232.527 261.48 232.492 261.334 232.492C261.188 232.492 261.043 232.527 260.913 232.594L255.645 235.644C255.415 235.764 255.437 235.983 255.645 236.125L261.733 239.644ZM278.861 229.807C278.991 229.874 279.135 229.909 279.281 229.909C279.428 229.909 279.572 229.874 279.702 229.807L284.97 226.768C285.189 226.637 285.178 226.419 284.97 226.277L278.871 222.757C278.741 222.693 278.597 222.659 278.451 222.659C278.305 222.659 278.161 222.693 278.03 222.757L272.761 225.796C272.532 225.927 272.554 226.145 272.761 226.288L278.861 229.807ZM246.321 248.585C246.452 248.652 246.596 248.687 246.742 248.687C246.889 248.687 247.033 248.652 247.163 248.585L252.442 245.536C252.661 245.404 252.65 245.197 252.442 245.055L246.376 241.557C246.246 241.49 246.102 241.455 245.955 241.455C245.809 241.455 245.665 241.49 245.534 241.557L240.255 244.607C240.037 244.738 240.047 244.945 240.255 245.087L246.321 248.585ZM254.027 244.137C254.157 244.204 254.302 244.239 254.448 244.239C254.594 244.239 254.739 244.204 254.869 244.137L260.148 241.087C260.367 240.956 260.356 240.748 260.148 240.606L254.049 237.087C253.919 237.019 253.775 236.984 253.628 236.984C253.482 236.984 253.338 237.019 253.207 237.087L247.939 240.136C247.71 240.256 247.72 240.475 247.939 240.617L254.027 244.137ZM293.66 218.68C293.789 218.745 293.931 218.778 294.075 218.778C294.219 218.778 294.362 218.745 294.491 218.68L299.77 215.642C299.989 215.51 299.978 215.292 299.77 215.15L298.152 214.221C298.022 214.154 297.878 214.119 297.731 214.119C297.585 214.119 297.441 214.154 297.311 214.221L292.031 217.27C291.813 217.39 291.824 217.609 292.031 217.751L293.66 218.68ZM316.777 205.324C316.907 205.391 317.052 205.426 317.198 205.426C317.344 205.426 317.489 205.391 317.619 205.324L322.887 202.274C323.117 202.154 323.106 201.935 322.887 201.793L321.259 200.853C321.128 200.788 320.984 200.755 320.838 200.755C320.692 200.755 320.548 200.788 320.417 200.853L315.149 203.892C314.919 204.023 314.93 204.241 315.149 204.384L316.777 205.324ZM329.587 212.723C329.718 212.788 329.862 212.821 330.008 212.821C330.154 212.821 330.298 212.788 330.429 212.723L335.697 209.674C335.927 209.543 335.916 209.324 335.697 209.193L329.598 205.673C329.468 205.606 329.324 205.571 329.178 205.571C329.031 205.571 328.887 205.606 328.757 205.673L323.532 208.767C323.314 208.887 323.324 209.105 323.532 209.247L329.587 212.723ZM348.857 232.277L354.126 229.239C354.355 229.108 354.333 228.889 354.126 228.747L348.027 225.227C347.896 225.163 347.752 225.129 347.606 225.129C347.46 225.129 347.316 225.163 347.185 225.227L341.917 228.277C341.698 228.408 341.709 228.627 341.917 228.758L348.016 232.288C348.157 232.36 348.314 232.396 348.472 232.392C348.631 232.389 348.786 232.345 348.923 232.266L348.857 232.277ZM301.431 214.232C301.562 214.296 301.706 214.33 301.852 214.33C301.998 214.33 302.142 214.296 302.273 214.232L307.541 211.193C307.771 211.062 307.749 210.843 307.541 210.701L305.924 209.761C305.793 209.697 305.649 209.663 305.503 209.663C305.357 209.663 305.213 209.697 305.082 209.761L299.803 212.8C299.584 212.931 299.595 213.149 299.803 213.292L301.431 214.232ZM238.681 253.034C238.811 253.101 238.956 253.136 239.102 253.136C239.248 253.136 239.393 253.101 239.523 253.034L244.791 249.984C245.021 249.864 245.01 249.645 244.791 249.503L238.692 245.984C238.562 245.917 238.418 245.882 238.271 245.882C238.125 245.882 237.981 245.917 237.851 245.984L232.571 249.033C232.353 249.164 232.364 249.383 232.571 249.514L238.681 253.034Z" fill="#E0E0E0"/>
<path d="M270.018 300.93L327.74 267.604L363.263 288.109L305.541 321.435L270.018 300.93Z" fill="#263238"/>
<path d="M154.114 103.301L326.068 4.00062C329.423 2.06598 332.178 3.65086 332.178 7.53107V140.748C332.122 141.733 331.836 142.691 331.342 143.545C330.848 144.4 330.161 145.126 329.336 145.667L153.021 247.481C151.458 248.377 150.19 247.645 150.19 245.842V110.111C150.268 108.748 150.663 107.423 151.344 106.24C152.026 105.058 152.974 104.051 154.114 103.301Z" fill="#F5F5F5"/>
<path d="M332.177 10.7227V7.53107C332.177 3.65086 329.423 2.06598 326.067 4.00062L154.114 103.301C152.971 104.05 152.021 105.056 151.337 106.239C150.654 107.421 150.257 108.747 150.179 110.111V115.86L332.177 10.7227Z" fill="#263238"/>
<path d="M306.535 18.0022C305.922 18.3994 305.41 18.9363 305.044 19.5689C304.677 20.2015 304.465 20.9118 304.426 21.6419C304.426 22.9863 305.366 23.5328 306.535 22.8661C307.147 22.4646 307.655 21.925 308.02 21.2909C308.384 20.6568 308.595 19.9458 308.634 19.2154C308.634 17.871 307.694 17.3245 306.535 18.0022Z" fill="#E0E0E0"/>
<path d="M314.886 13.171C314.274 13.5725 313.766 14.1121 313.401 14.7462C313.037 15.3804 312.826 16.0913 312.787 16.8217C312.787 18.1661 313.727 18.7126 314.886 18.0349C315.497 17.6342 316.005 17.0945 316.367 16.46C316.73 15.8256 316.938 15.1143 316.973 14.3843C316.973 13.0508 316.055 12.5043 314.886 13.171Z" fill="#E0E0E0"/>
<path d="M323.247 8.35083C322.631 8.75327 322.119 9.29577 321.752 9.93404C321.385 10.5723 321.175 11.2882 321.138 12.0234C321.138 13.3569 322.089 13.9034 323.247 13.2366C323.861 12.837 324.372 12.2981 324.739 11.6637C325.105 11.0294 325.317 10.3175 325.357 9.58594C325.357 8.21967 324.417 7.6513 323.247 8.35083Z" fill="#E0E0E0"/>
<path d="M150.146 115.827V141.458L332.178 36.3649V10.7227L150.146 115.827Z" fill="#1E959B"/>
<path opacity="0.1" d="M150.146 115.827V141.458L332.178 36.3649V10.7227L150.146 115.827Z" fill="black"/>
<path d="M162.061 128.102C161.449 128.289 160.8 128.327 160.17 128.211V115.641C160.16 115.402 160.218 115.165 160.338 114.958C160.458 114.751 160.635 114.582 160.848 114.472L161.788 113.925C162.028 113.783 162.214 113.751 162.323 113.816C162.433 113.882 162.487 114.046 162.487 114.308V118.44C162.834 117.89 163.253 117.39 163.733 116.953C164.24 116.496 164.793 116.093 165.384 115.751C166.772 114.953 167.832 114.778 168.575 115.215C169.319 115.652 169.668 116.68 169.668 118.265C169.69 120.028 169.237 121.764 168.357 123.293C167.422 124.873 166.083 126.174 164.477 127.063C163.723 127.519 162.91 127.869 162.061 128.102ZM166.641 122.976C167.146 121.958 167.394 120.832 167.362 119.697C167.362 118.604 167.176 117.948 166.783 117.674C166.389 117.401 165.755 117.51 164.848 118.035C164.203 118.419 163.642 118.928 163.198 119.533C162.748 120.099 162.498 120.799 162.487 121.522V125.828C162.773 125.85 163.06 125.809 163.329 125.708C163.712 125.594 164.079 125.432 164.422 125.227C165.362 124.704 166.132 123.923 166.641 122.976Z" fill="#FAFAFA"/>
<path d="M171.601 122.418C171.503 122.353 171.448 122.189 171.448 121.937V109.105C171.431 108.865 171.486 108.625 171.607 108.416C171.728 108.208 171.909 108.04 172.126 107.936L173.099 107.367C173.35 107.225 173.525 107.192 173.634 107.258C173.744 107.324 173.798 107.488 173.798 107.75V120.615C173.812 120.856 173.752 121.095 173.627 121.302C173.502 121.508 173.318 121.673 173.099 121.773L172.126 122.342C171.929 122.484 171.754 122.517 171.601 122.418Z" fill="#FAFAFA"/>
<path d="M176.936 118.461C176.073 117.991 175.636 116.92 175.636 115.248C175.635 113.596 176.084 111.974 176.936 110.559C177.827 109.064 179.093 107.828 180.609 106.974C182.205 106.056 183.429 105.881 184.303 106.307C185.178 106.733 185.604 107.837 185.604 109.499C185.606 111.155 185.157 112.78 184.303 114.199C183.407 115.697 182.133 116.933 180.609 117.784C179.024 118.702 177.8 118.931 176.936 118.461ZM182.598 113.783C183.064 112.874 183.297 111.864 183.276 110.843C183.276 109.75 183.046 109.04 182.598 108.723C182.15 108.406 181.505 108.515 180.609 109.018C179.782 109.486 179.101 110.175 178.642 111.007C178.169 111.902 177.932 112.903 177.953 113.914C177.953 115.007 178.182 115.729 178.642 116.1C179.101 116.472 179.735 116.33 180.609 115.838C181.455 115.357 182.145 114.644 182.598 113.783Z" fill="#FAFAFA"/>
<path d="M190.009 115.412C189.521 115.615 188.995 115.708 188.468 115.685C188.271 115.685 188.216 115.543 188.315 115.303L188.85 113.958C188.888 113.826 188.964 113.708 189.069 113.619C189.13 113.606 189.193 113.606 189.255 113.619C190.193 113.542 191.096 113.226 191.878 112.701C192.621 112.304 193.241 111.71 193.67 110.985C194.083 110.178 194.279 109.278 194.239 108.373C193.579 109.587 192.59 110.591 191.386 111.269C190.009 112.067 188.938 112.253 188.183 111.827C187.429 111.401 187.09 110.417 187.09 108.843C187.071 107.117 187.545 105.422 188.457 103.957C189.439 102.407 190.796 101.129 192.402 100.241C193.136 99.8104 193.927 99.4866 194.752 99.279C195.355 99.0995 195.99 99.0584 196.611 99.1587V106.416C196.629 108.034 196.254 109.632 195.518 111.073C194.738 112.517 193.557 113.705 192.118 114.494C191.445 114.865 190.739 115.172 190.009 115.412ZM193.605 107.334C194.016 106.712 194.237 105.982 194.239 105.236V101.465C193.938 101.484 193.642 101.555 193.364 101.673C192.987 101.823 192.621 102.002 192.271 102.208C191.355 102.695 190.596 103.432 190.083 104.334C189.57 105.236 189.324 106.265 189.375 107.302C189.375 108.395 189.593 108.996 190.02 109.269C190.446 109.542 191.113 109.422 191.965 108.919C192.628 108.526 193.189 107.983 193.605 107.334Z" fill="#FAFAFA"/>
<path d="M181.221 134.868V224.954C181.221 225.566 181.538 225.861 181.921 225.632C182.143 225.447 182.32 225.214 182.439 224.951C182.558 224.688 182.617 224.401 182.609 224.112V134.026C182.609 133.414 182.303 133.119 181.921 133.348C181.697 133.533 181.518 133.765 181.397 134.028C181.276 134.291 181.216 134.578 181.221 134.868Z" fill="#1E959B"/>
<path d="M127.947 169.811L167.613 146.858C168.913 146.104 169.974 146.716 169.974 148.224V176.118C169.93 176.939 169.694 177.738 169.284 178.45C168.873 179.162 168.301 179.767 167.613 180.217L127.947 203.17C126.635 203.924 125.575 203.312 125.575 201.804V173.91C125.62 173.088 125.858 172.289 126.27 171.577C126.682 170.864 127.257 170.259 127.947 169.811Z" fill="#E0E0E0"/>
<path d="M169.974 148.279C169.974 146.771 168.881 146.158 167.613 146.913L127.947 169.866C127.257 170.314 126.682 170.919 126.27 171.631C125.858 172.343 125.62 173.143 125.575 173.965V176.337L169.974 150.705V148.279Z" fill="#1E959B"/>
<path d="M130.014 178.851L147.775 168.598V186.545L130.014 196.798V178.851Z" fill="#FAFAFA"/>
<path d="M130.068 194.186L136.736 182.37C136.788 182.252 136.87 182.15 136.973 182.074C137.077 181.997 137.198 181.949 137.326 181.933C137.454 181.918 137.584 181.936 137.702 181.986C137.821 182.035 137.925 182.115 138.004 182.217L140.343 184.775L144.343 175.517C144.584 174.959 145.065 174.916 145.436 175.408L147.852 178.851V186.502L130.068 196.798V194.186Z" fill="#1E959B"/>
<path d="M152.212 167.582C152.212 168.434 152.857 168.762 153.633 168.303L164.115 162.259C164.521 162.002 164.861 161.654 165.107 161.242C165.354 160.83 165.501 160.366 165.536 159.887C165.536 159.034 164.902 158.706 164.115 159.165L153.633 165.21C153.228 165.468 152.889 165.816 152.643 166.228C152.396 166.64 152.249 167.103 152.212 167.582Z" fill="#FAFAFA"/>
<path d="M152.212 174.96C152.212 175.812 152.857 176.14 153.633 175.692L164.115 169.637C164.522 169.383 164.862 169.037 165.109 168.627C165.357 168.217 165.503 167.753 165.536 167.276C165.536 166.423 164.902 166.095 164.115 166.543L153.633 172.599C153.228 172.854 152.888 173.2 152.642 173.61C152.395 174.02 152.248 174.482 152.212 174.96Z" fill="#FAFAFA"/>
<path d="M152.212 182.348C152.212 183.201 152.857 183.529 153.633 183.07L164.115 177.025C164.521 176.768 164.861 176.42 165.107 176.008C165.354 175.596 165.501 175.132 165.536 174.653C165.536 173.801 164.902 173.473 164.115 173.932L153.633 179.976C153.228 180.234 152.889 180.583 152.643 180.995C152.396 181.406 152.249 181.87 152.212 182.348Z" fill="#FAFAFA"/>
<path d="M127.947 213.007L167.613 190.109C168.913 189.354 169.974 189.967 169.974 191.475V219.38C169.928 220.2 169.691 220.998 169.281 221.71C168.871 222.422 168.3 223.028 167.613 223.478L127.947 246.377C126.635 247.131 125.575 246.519 125.575 245.011V217.106C125.62 216.284 125.858 215.485 126.27 214.773C126.682 214.06 127.257 213.456 127.947 213.007Z" fill="#E0E0E0"/>
<path d="M169.974 191.475C169.974 189.967 168.881 189.354 167.613 190.109L127.947 213.007C127.257 213.456 126.682 214.06 126.27 214.773C125.858 215.485 125.62 216.284 125.575 217.106V219.489L169.974 193.858V191.475Z" fill="#1E959B"/>
<path d="M130.014 222.047L147.775 211.794V229.741L130.014 239.994V222.047Z" fill="#FAFAFA"/>
<path d="M130.068 237.393L136.736 225.566C136.789 225.449 136.872 225.348 136.976 225.273C137.08 225.197 137.202 225.15 137.329 225.136C137.457 225.121 137.586 225.14 137.705 225.191C137.823 225.241 137.926 225.322 138.004 225.424L140.343 227.982L144.278 218.713C144.298 218.589 144.358 218.476 144.449 218.39C144.54 218.304 144.657 218.251 144.782 218.238C144.907 218.226 145.032 218.255 145.138 218.321C145.245 218.387 145.326 218.486 145.371 218.604L147.786 222.047V229.698L130.068 239.994V237.393Z" fill="#1E959B"/>
<path d="M152.212 210.778C152.212 211.641 152.857 211.958 153.633 211.51L164.115 205.455C164.522 205.202 164.862 204.856 165.109 204.445C165.357 204.035 165.503 203.572 165.536 203.094C165.536 202.241 164.902 201.913 164.115 202.361L153.633 208.417C153.228 208.672 152.888 209.018 152.642 209.428C152.395 209.838 152.248 210.3 152.212 210.778Z" fill="#FAFAFA"/>
<path d="M152.212 218.166C152.212 219.019 152.857 219.347 153.633 218.888L164.115 212.843C164.521 212.587 164.861 212.238 165.107 211.826C165.354 211.414 165.501 210.95 165.536 210.472C165.536 209.619 164.902 209.291 164.115 209.75L153.633 215.794C153.228 216.053 152.889 216.401 152.643 216.813C152.396 217.224 152.249 217.688 152.212 218.166Z" fill="#FAFAFA"/>
<path d="M152.212 225.544C152.212 226.397 152.857 226.725 153.633 226.277L164.115 220.221C164.522 219.968 164.862 219.622 165.109 219.212C165.357 218.801 165.503 218.338 165.536 217.86C165.536 216.997 164.902 216.68 164.115 217.128L153.633 223.183C153.228 223.438 152.888 223.785 152.642 224.195C152.395 224.605 152.248 225.067 152.212 225.544Z" fill="#FAFAFA"/>
<path d="M196.905 170.85L318.853 100.449C320.164 99.6943 321.225 100.306 321.225 101.815V137.371C321.182 138.193 320.944 138.993 320.532 139.706C320.12 140.418 319.544 141.023 318.853 141.469L196.905 211.871C195.604 212.625 194.544 212.024 194.544 210.504V174.949C194.589 174.128 194.826 173.33 195.236 172.618C195.646 171.906 196.218 171.3 196.905 170.85Z" fill="#E0E0E0"/>
<path d="M321.225 101.815C321.225 100.306 320.132 99.6943 318.853 100.449L196.905 170.85C196.218 171.3 195.646 171.906 195.236 172.618C194.826 173.33 194.589 174.128 194.544 174.949V177.32L321.225 104.187V101.815Z" fill="#1E959B"/>
<path d="M224.613 163.472L199.988 177.681C199.436 178.039 198.977 178.523 198.648 179.093C198.319 179.663 198.13 180.303 198.097 180.96V205.302C198.097 206.504 198.938 206.996 199.988 206.395L224.613 192.185C225.165 191.827 225.624 191.343 225.953 190.773C226.281 190.203 226.47 189.563 226.504 188.906V164.565C226.504 163.352 225.663 162.86 224.613 163.472Z" fill="#FAFAFA"/>
<path d="M206.775 184.862L198.097 203.443V205.367C198.097 206.569 198.938 207.061 199.988 206.46L224.613 192.251C225.165 191.893 225.624 191.409 225.953 190.839C226.281 190.269 226.47 189.629 226.504 188.972V180.567L221.848 171.822C221.28 170.729 220.438 170.795 219.968 171.899L212.634 189.092L209.071 184.644C208.952 184.429 208.774 184.254 208.557 184.14C208.34 184.025 208.095 183.977 207.851 184C207.607 184.023 207.376 184.117 207.185 184.271C206.993 184.424 206.851 184.629 206.775 184.862Z" fill="#1E959B"/>
<path d="M200.939 184.644C202.178 183.834 203.209 182.744 203.95 181.463C204.69 180.181 205.119 178.744 205.202 177.266C205.231 176.486 205.005 175.718 204.557 175.08L200.021 177.692C199.469 178.05 199.01 178.534 198.681 179.104C198.353 179.674 198.164 180.314 198.13 180.971V185.015C198.594 185.181 199.091 185.233 199.579 185.169C200.068 185.104 200.534 184.924 200.939 184.644Z" fill="#1E959B"/>
<path d="M237.642 158.105L313.771 114.155C314.864 113.554 315.672 113.958 315.672 115.073C315.621 115.705 315.422 116.316 315.092 116.857C314.761 117.398 314.309 117.854 313.771 118.188L237.642 162.138C236.549 162.74 235.751 162.335 235.751 161.22C235.799 160.589 235.995 159.978 236.323 159.436C236.652 158.895 237.104 158.439 237.642 158.105Z" fill="#FAFAFA"/>
<path d="M237.642 168.325L313.771 124.375C314.864 123.773 315.672 124.178 315.672 125.293C315.623 125.925 315.424 126.536 315.094 127.078C314.764 127.619 314.31 128.075 313.771 128.408L237.642 172.358C236.549 172.959 235.751 172.555 235.751 171.44C235.799 170.808 235.995 170.197 236.323 169.656C236.652 169.115 237.104 168.659 237.642 168.325Z" fill="#FAFAFA"/>
<path d="M237.642 178.61L313.771 134.66C314.864 134.059 315.672 134.463 315.672 135.578C315.623 136.21 315.424 136.822 315.094 137.363C314.764 137.904 314.31 138.36 313.771 138.693L237.642 182.643C236.549 183.256 235.751 182.84 235.751 181.725C235.8 181.094 235.996 180.483 236.325 179.942C236.653 179.401 237.104 178.945 237.642 178.61Z" fill="#FAFAFA"/>
<path d="M362.214 58.4001L351.032 58.094C350.278 57.4492 338.55 44.2018 338.55 44.2018C338.55 44.2018 334.32 50.8692 334.254 51.2955C334.189 51.7217 345.764 64.0947 346.9 65.3517C347.225 65.7665 347.64 66.102 348.113 66.333C348.587 66.5641 349.106 66.6845 349.633 66.6851C352.661 66.86 364.006 67.6579 364.006 67.6579L362.214 58.4001Z" fill="#F2C6C6"/>
<path d="M378.096 71.2431L360.87 69.9643L362.204 58.4001L379.987 58.7936L378.096 71.2431Z" fill="#1E959B"/>
<path opacity="0.2" d="M378.096 71.2431L360.87 69.9643L362.204 58.4001L379.987 58.7936L378.096 71.2431Z" fill="black"/>
<path d="M219.105 109.302L341.02 38.8788C342.332 38.1246 343.392 38.7367 343.392 40.2451V75.8118C343.347 76.6336 343.109 77.4331 342.697 78.1454C342.285 78.8577 341.71 79.4625 341.02 79.9107L219.105 150.312C217.804 151.066 216.744 150.454 216.744 148.946V113.379C216.793 112.562 217.031 111.768 217.441 111.06C217.851 110.353 218.421 109.75 219.105 109.302Z" fill="#E0E0E0"/>
<path d="M343.425 40.2451C343.425 38.7367 342.332 38.1246 341.053 38.8788L219.105 109.302C218.418 109.753 217.847 110.358 217.436 111.07C217.026 111.782 216.789 112.58 216.744 113.401V115.783L343.425 42.6278V40.2451Z" fill="#F05670"/>
<path d="M246.812 101.902L222.187 116.111C221.636 116.47 221.177 116.955 220.848 117.524C220.52 118.094 220.331 118.734 220.296 119.39V143.732C220.296 144.945 221.138 145.426 222.187 144.825L246.812 130.616C247.364 130.257 247.823 129.773 248.152 129.203C248.481 128.634 248.67 127.994 248.703 127.337V102.995C248.703 101.793 247.862 101.301 246.812 101.902Z" fill="#FAFAFA"/>
<path d="M228.974 123.293L220.296 141.874V143.798C220.296 145.011 221.138 145.492 222.187 144.891L246.812 130.681C247.364 130.323 247.823 129.839 248.152 129.269C248.481 128.699 248.67 128.059 248.703 127.402V118.997L244.047 110.253C243.479 109.16 242.637 109.225 242.167 110.34L234.833 127.577L231.27 123.129C231.156 122.913 230.982 122.735 230.768 122.616C230.555 122.498 230.312 122.444 230.069 122.462C229.825 122.479 229.592 122.567 229.398 122.714C229.204 122.862 229.057 123.063 228.974 123.293Z" fill="#F05670"/>
<path d="M223.138 123.074C224.379 122.266 225.411 121.177 226.152 119.895C226.893 118.613 227.32 117.174 227.401 115.696C227.432 114.916 227.206 114.148 226.756 113.51L222.187 116.144C221.636 116.503 221.177 116.987 220.848 117.557C220.52 118.127 220.331 118.766 220.296 119.423V123.467C220.766 123.638 221.27 123.691 221.766 123.623C222.261 123.554 222.732 123.366 223.138 123.074Z" fill="#F05670"/>
<path d="M259.842 96.5464L335.971 52.5853C337.064 51.9841 337.862 52.3995 337.862 53.5143C337.816 54.1448 337.62 54.7552 337.291 55.295C336.963 55.8348 336.51 56.2885 335.971 56.6185L259.842 100.558C258.749 101.159 257.951 100.744 257.951 99.6287C258.002 99.0026 258.2 98.3972 258.528 97.8617C258.857 97.3262 259.307 96.8756 259.842 96.5464Z" fill="#FAFAFA"/>
<path d="M259.842 106.799L335.971 62.8377C337.064 62.2366 337.862 62.6519 337.862 63.7668C337.816 64.3972 337.62 65.0076 337.291 65.5474C336.963 66.0872 336.51 66.5409 335.971 66.871L259.842 110.832C258.749 111.433 257.951 111.018 257.951 109.903C257.999 109.273 258.195 108.663 258.524 108.124C258.852 107.584 259.304 107.13 259.842 106.799Z" fill="#FAFAFA"/>
<path d="M259.842 117.051L335.971 73.0903C337.064 72.4891 337.862 72.9045 337.862 74.0193C337.816 74.6498 337.62 75.2602 337.291 75.8C336.963 76.3398 336.51 76.7935 335.971 77.1235L259.842 121.085C258.749 121.686 257.951 121.27 257.951 120.156C257.999 119.526 258.195 118.916 258.524 118.376C258.852 117.837 259.304 117.383 259.842 117.051Z" fill="#FAFAFA"/>
<path d="M400.086 193.508H393.638V202.908H400.086V193.508Z" fill="#FFD2D1"/>
<path d="M377.406 181.864L370.961 182.086L371.284 191.48L377.729 191.258L377.406 181.864Z" fill="#FFD2D1"/>
<path d="M399.671 101.76C399.671 107.925 400.469 147.787 400.469 147.787C400.622 149.569 402.284 152.837 401.923 159.646C401.431 168.893 400.633 194.623 400.633 194.623C400.633 194.623 397.606 197.618 393.332 194.623C393.332 194.623 387.495 159.701 386.337 150.53C385.32 142.53 383.615 120.789 383.615 120.789L377.636 146.355C377.636 146.355 378.729 152.367 378.915 156.619C379.101 160.87 377.822 185.387 377.822 185.387C376.776 186.041 375.576 186.409 374.343 186.455C373.11 186.501 371.886 186.223 370.794 185.649C370.794 185.649 365.613 149.82 364.946 145.994C364.279 142.169 369.438 101.76 369.438 101.76H399.671Z" fill="#455A64"/>
<path d="M389.955 59.0778H390.042C392.805 59.7821 395.254 61.3899 396.999 63.6457C398.744 65.9014 399.684 68.6755 399.672 71.5272V101.76C395.146 106.69 379.374 108.985 369.482 101.76V70.303C369.482 65.2752 372.281 59.2417 379.986 58.7936L389.955 59.0778Z" fill="#1E959B"/>
<path d="M392.13 33.359C392.648 33.2987 393.173 33.3569 393.666 33.5292C394.158 33.7015 394.605 33.9834 394.972 34.3537C396.196 35.6106 395.945 37.9169 394.972 43.2399L391.201 43.6662L392.13 33.359Z" fill="#263238"/>
<path d="M370.106 31.818C369.294 31.8211 368.49 31.6574 367.745 31.337C366.586 30.6703 366.28 31.9929 366.914 33.1296C367.332 33.9502 367.954 34.6502 368.719 35.1629C369.484 35.6757 370.368 35.9841 371.286 36.0589C371.286 35.884 372.379 33.1077 372.379 33.1077L370.106 31.818Z" fill="#263238"/>
<path d="M390.358 43.7208C390.916 44.0597 391.714 42.9885 392.413 42.2562C392.685 41.946 393.031 41.7101 393.419 41.5708C393.807 41.4315 394.225 41.3934 394.631 41.4602C395.038 41.5269 395.422 41.6962 395.745 41.9521C396.068 42.2081 396.321 42.5422 396.479 42.9229C397.627 45.3385 395.026 48.552 393.495 49.6231C393.067 49.9925 392.533 50.2168 391.969 50.2639C391.406 50.311 390.842 50.1785 390.358 49.8854L389.954 59.1324C389.28 60.6162 388.248 61.9094 386.951 62.8958C385.654 63.8821 384.131 64.5307 382.521 64.7833C377.056 65.5156 378.149 61.0342 379.986 58.8482V55.427C378.633 55.7216 377.241 55.7917 375.865 55.6347C375.154 55.4489 373.46 53.4487 372.367 51.1205C371.143 48.552 369.088 44.005 370.925 36.2992C372.87 28.0142 381.767 27.7628 387.068 31.1074C392.37 34.452 390.358 43.7208 390.358 43.7208Z" fill="#FFD2D1"/>
<path d="M390.359 44.6171C390.643 44.6171 391.714 42.8355 392.414 42.2015C393.376 41.3271 392.13 33.359 392.13 33.359C392.13 33.359 393.102 30.3314 391.201 28.3312C389.299 26.3309 385.582 26.6588 382.872 26.5605C379.546 26.5816 376.25 25.9233 373.188 24.6258C369.34 22.9535 369.056 22.7568 368.575 24.44C368.094 26.1233 367.919 30.0035 370.215 32.5939L372.127 33.2935C372.127 33.2935 373.155 34.2116 376.74 34.6488C380.054 34.895 383.384 34.8328 386.686 34.463C387.779 34.3209 387.943 35.3265 388.512 38.0809C389.004 40.4964 389.408 44.5953 390.359 44.6171Z" fill="#263238"/>
<path d="M392.118 33.9712L395.517 32.1568C395.409 31.9279 395.256 31.7233 395.067 31.5555C394.877 31.3876 394.656 31.26 394.416 31.1802C394.175 31.1005 393.921 31.0704 393.669 31.0917C393.417 31.113 393.172 31.1853 392.949 31.3042C392.494 31.5565 392.153 31.9745 391.999 32.4712C391.844 32.9679 391.887 33.5051 392.118 33.9712Z" fill="#263238"/>
<path d="M379.997 55.4271C382.314 54.9849 384.586 54.3337 386.785 53.4815C387.82 52.9461 388.666 52.107 389.211 51.0769C388.946 52.1033 388.478 53.0659 387.834 53.9078C386.544 55.5583 379.997 56.7606 379.997 56.7606V55.4271Z" fill="#F2C6C6"/>
<path d="M381.21 42.4093C381.227 42.6036 381.3 42.7887 381.42 42.9422C381.541 43.0956 381.703 43.2108 381.887 43.2737C382.072 43.3366 382.271 43.3445 382.46 43.2963C382.649 43.2482 382.82 43.1462 382.952 43.0027C383.084 42.8592 383.171 42.6804 383.204 42.4881C383.236 42.2958 383.211 42.0982 383.133 41.9195C383.055 41.7408 382.927 41.5886 382.764 41.4815C382.601 41.3744 382.411 41.317 382.216 41.3163C381.941 41.3383 381.685 41.4631 381.499 41.6658C381.312 41.8684 381.209 42.1339 381.21 42.4093Z" fill="#263238"/>
<path d="M382.281 38.6055L384.467 39.7969C384.619 39.5008 384.651 39.1579 384.558 38.8388C384.464 38.5196 384.252 38.2484 383.965 38.0808C383.821 37.9985 383.662 37.9466 383.497 37.9286C383.333 37.9105 383.166 37.9266 383.008 37.9758C382.85 38.0251 382.704 38.1064 382.579 38.2148C382.454 38.3231 382.353 38.4561 382.281 38.6055Z" fill="#263238"/>
<path d="M381.287 49.2516L378.98 50.1151C379.031 50.2692 379.112 50.4116 379.218 50.5337C379.325 50.6558 379.455 50.755 379.601 50.8255C379.747 50.8959 379.906 50.9361 380.068 50.9436C380.23 50.9512 380.392 50.9259 380.543 50.8693C380.853 50.749 381.104 50.5129 381.243 50.211C381.382 49.909 381.397 49.5649 381.287 49.2516Z" fill="#F2C6C6"/>
<path d="M372.225 39.4472L374.193 37.9388C374.1 37.8048 373.982 37.6912 373.844 37.6048C373.706 37.5185 373.552 37.4612 373.391 37.4367C373.231 37.4121 373.066 37.4207 372.909 37.4619C372.752 37.5032 372.605 37.5762 372.477 37.6765C372.216 37.8835 372.045 38.1824 371.998 38.5118C371.952 38.8411 372.033 39.1759 372.225 39.4472Z" fill="#263238"/>
<path d="M372.826 42.125C372.843 42.3193 372.916 42.5044 373.037 42.6579C373.157 42.8113 373.319 42.9265 373.504 42.9894C373.688 43.0523 373.887 43.0601 374.076 43.012C374.265 42.9639 374.436 42.8619 374.568 42.7184C374.7 42.5749 374.788 42.3961 374.82 42.2038C374.852 42.0115 374.828 41.8139 374.75 41.6352C374.672 41.4565 374.543 41.3043 374.38 41.1972C374.217 41.0901 374.027 41.0327 373.832 41.032C373.693 41.0347 373.556 41.0654 373.43 41.1224C373.303 41.1794 373.189 41.2614 373.096 41.3636C373.002 41.4657 372.929 41.5859 372.883 41.7167C372.837 41.8476 372.817 41.9865 372.826 42.125Z" fill="#263238"/>
<path d="M377.963 41.1742L377.636 47.2295L374.466 46.1584L377.963 41.1742Z" fill="#F2C6C6"/>
<path d="M393.638 199.716V198.798C393.026 199.071 391.594 204.537 389.026 206.876C386.993 208.734 384.216 210.876 383.506 212.942C382.795 215.008 387.375 216.286 389.277 215.948C391.463 215.565 395.321 214.002 396.283 212.559C397.245 211.117 397.693 208.996 398.469 207.936C399.245 206.876 401.06 205.695 401.475 204.471C401.607 203.341 401.492 202.196 401.136 201.115C400.841 200.022 400.513 198.722 400.131 198.831V199.531C399.213 200.255 398.075 200.641 396.906 200.624C395.923 200.624 393.638 200.438 393.638 199.716Z" fill="#263238"/>
<path d="M371.198 189.497C370.87 189.497 370.597 189.988 369.854 190.786C368.749 191.9 367.468 192.824 366.061 193.519C363.646 194.732 358.946 196.59 356.814 197.541C355.492 198.142 355.546 199.727 356.923 200.656C358.301 201.585 361.613 202.23 365.591 201.345C367.777 200.853 370.586 198.853 372.368 198.962C374.149 199.071 377.505 199.05 378.817 198.131C380.128 197.213 379.614 195.29 379.243 193.617C378.871 191.945 378.248 189.016 377.647 189.136V189.704C376.871 190.885 372.914 191.366 371.209 190.502L371.198 189.497Z" fill="#263238"/>
<path d="M391.911 63.2749L371.986 83.8892C371.986 83.8892 354.497 80.7632 348.529 79.0471C346.649 78.5116 345.338 75.7025 344.922 73.5821C344.818 72.4744 344.279 71.453 343.425 70.7402C343.425 70.7402 343.425 72.2814 343.032 74.8172C342.878 75.9102 341.141 76.0523 339.61 76.3802C334.145 77.5606 332.276 76.3802 330.025 77.9541C328.276 79.2002 330.462 82.4355 334.462 83.5394C340.059 85.0697 343.152 84.3046 346.562 85.1462C349.196 85.802 368.149 91.7043 371.756 92.5459C373.669 92.9612 375.122 92.8301 377.221 90.7752C379.32 88.7203 395.037 75.0139 395.037 75.0139L391.911 63.2749Z" fill="#FFD2D1"/>
<path d="M392.775 62.5645C390.589 62.018 377.265 77.8667 377.265 77.8667L384.61 84.0313C384.61 84.0313 394.108 77.8011 395.802 75.2872C397.496 72.7733 399.387 64.2149 392.775 62.5645Z" fill="#1E959B"/>
<path d="M385.079 84.4577C385.079 84.4577 395.113 75.4731 395.583 74.4894C396.49 72.5875 396.25 69.0898 396.25 69.0898C396.25 69.0898 397.343 72.1394 396.25 74.4894C395.157 76.8393 387.506 83.5067 386.293 84.6544L385.057 85.813L383.877 84.72L384.587 84.086L385.079 84.4577Z" fill="#1E959B"/>
<path opacity="0.2" d="M385.079 84.4577C385.079 84.4577 395.113 75.4731 395.583 74.4894C396.49 72.5875 396.25 69.0898 396.25 69.0898C396.25 69.0898 397.343 72.1394 396.25 74.4894C395.157 76.8393 387.506 83.5067 386.293 84.6544L385.057 85.813L383.877 84.72L384.587 84.086L385.079 84.4577Z" fill="black"/>
<path d="M334.681 39.9609C336.867 39.7204 338.321 38.1027 338.812 38.5618C339.005 38.7811 339.11 39.0627 339.11 39.3542C339.11 39.6458 339.005 39.9274 338.812 40.1467C337.803 40.9087 336.701 41.5404 335.533 42.0267C335.253 43.1369 335.053 44.2655 334.932 45.4041C334.757 47.0764 334.812 50.421 333.391 51.5687C329.117 54.9898 328.013 49.5466 328.188 45.8959C328.472 41.3708 332.385 40.2122 334.681 39.9609Z" fill="#F2C6C6"/>
</svg>
