<svg width="40" height="28" viewBox="0 0 40 28" fill="none" xmlns="http://www.w3.org/2000/svg">
<path d="M26.5186 13.9561L39.7439 22.3112V5.24829L26.5186 13.9561Z" fill="#1E959B"/>
<path d="M0.513672 5.24829V22.3112L13.739 13.9561L0.513672 5.24829Z" fill="#1E959B"/>
<path d="M37.2913 0.279297H2.96522C1.74174 0.279297 0.770804 1.19075 0.586914 2.36438L20.1282 15.2302L39.6696 2.36438C39.4857 1.19075 38.5147 0.279297 37.2913 0.279297Z" fill="#1E959B"/>
<path d="M24.2719 15.436L20.8025 17.7196C20.5965 17.8543 20.3636 17.9205 20.1282 17.9205C19.8928 17.9205 19.6599 17.8543 19.4539 17.7196L15.9846 15.4336L0.591797 25.1632C0.78059 26.327 1.74662 27.2311 2.9652 27.2311H37.2912C38.5098 27.2311 39.4758 26.327 39.6646 25.1632L24.2719 15.436Z" fill="#1E959B"/>
</svg>
