<svg width="47" height="35" viewBox="0 0 47 35" fill="none" xmlns="http://www.w3.org/2000/svg">
<g clip-path="url(#clip0_120:1458)">
<path d="M30.5186 17.9561L43.7439 26.3112V9.24829L30.5186 17.9561Z" fill="#1E959B"/>
<path d="M4.51367 9.24829V26.3112L17.739 17.9561L4.51367 9.24829Z" fill="#1E959B"/>
<path d="M41.2913 4.2793H6.96522C5.74174 4.2793 4.7708 5.19075 4.58691 6.36438L24.1282 19.2302L43.6696 6.36438C43.4857 5.19075 42.5147 4.2793 41.2913 4.2793Z" fill="#1E959B"/>
<path d="M28.2719 19.436L24.8025 21.7196C24.5965 21.8543 24.3636 21.9205 24.1282 21.9205C23.8928 21.9205 23.6599 21.8543 23.4539 21.7196L19.9846 19.4336L4.5918 29.1632C4.78059 30.327 5.74662 31.2311 6.9652 31.2311H41.2912C42.5098 31.2311 43.4758 30.327 43.6646 29.1632L28.2719 19.436Z" fill="#1E959B"/>
</g>
<defs>
<clipPath id="clip0_120:1458">
<rect width="46.3225" height="35" fill="white" transform="translate(0.603516)"/>
</clipPath>
</defs>
</svg>
