<svg width="19" height="32" viewBox="0 0 19 32" fill="none" xmlns="http://www.w3.org/2000/svg">
<path d="M16.0658 0H2.72457C1.44868 0 0.417969 1.034 0.417969 2.309V29.3791C0.417969 30.6501 1.44868 31.6851 2.72457 31.6851H16.0658C17.3397 31.6851 18.3744 30.6511 18.3744 29.3791V2.309C18.3734 1.034 17.3397 0 16.0658 0ZM16.6442 25.6721H2.14817V3.89501H16.6442V25.6721ZM12.4883 2.343H6.30305V1.669H12.4893L12.4883 2.343ZM15.1352 2.035C15.1352 2.361 14.869 2.62501 14.5438 2.62501C14.2175 2.62501 13.9523 2.36 13.9523 2.035C13.9523 1.71 14.2175 1.445 14.5438 1.445C14.87 1.444 15.1352 1.709 15.1352 2.035ZM12.2111 29.2251H6.57824V27.4931H12.2111V29.2251Z" fill="#1E959B"/>
</svg>
